<svg width="56" height="55" viewBox="0 0 56 55" fill="none" xmlns="http://www.w3.org/2000/svg">
<path d="M28 0.407959C12.5656 0.407959 0 12.5568 0 27.4793C0 42.4017 12.5656 54.5506 28 54.5506C43.4344 54.5506 56 42.4017 56 27.4793C56 12.5568 43.4344 0.407959 28 0.407959ZM2.78035 36.8355H10.3453C11.0919 39.7421 12.1726 42.4112 13.5284 44.7574H7.7614C5.64912 42.4397 3.94947 39.7706 2.78035 36.8355ZM53.2295 18.1515H45.6547C44.9081 15.2449 43.8274 12.5758 42.4814 10.2296H48.2582C50.3705 12.5473 52.0603 15.2164 53.2295 18.1515ZM44.6526 18.1515H37.0582C36.6849 15.2354 36.1544 12.5663 35.4765 10.2296H41.3811C42.7761 12.5473 43.8863 15.2164 44.6625 18.1515H44.6526ZM28.5011 18.1515V10.2296H34.4351C35.1228 12.5473 35.673 15.2354 36.0561 18.1515H28.5011ZM36.174 19.1014C36.4688 21.6091 36.626 24.2687 36.6456 27.0233H28.5011V19.1014H36.174ZM28.5011 9.27975V1.40532C30.6821 1.79477 32.6667 4.75837 34.1404 9.27975H28.5011ZM27.5186 9.27975H21.8793C23.353 4.75837 25.3375 1.79477 27.5186 1.40532V9.27975ZM27.5186 10.2296V18.1515H19.9635C20.3467 15.2354 20.8968 12.5568 21.5846 10.2296H27.5186ZM27.5186 19.1014V27.0233H19.374C19.3937 24.2687 19.5607 21.6091 19.8456 19.1014H27.5186ZM18.3916 27.0233H10.1881C10.2175 24.2592 10.5516 21.5996 11.1312 19.1014H18.8435C18.5684 21.5901 18.4112 24.2497 18.3916 27.0233ZM18.3916 27.9732C18.4112 30.7468 18.5684 33.4065 18.8435 35.8951H11.1312C10.5516 33.397 10.2175 30.7373 10.1881 27.9732H18.3916ZM19.374 27.9732H27.5186V35.8951H19.8456C19.5509 33.3875 19.3839 30.7278 19.374 27.9732ZM27.5186 36.845V44.7669H21.5944C20.9067 42.4492 20.3565 39.7706 19.9733 36.845H27.5284H27.5186ZM27.5186 45.7168V53.5627C25.3474 53.1733 23.353 50.2192 21.8891 45.7168H27.5186ZM28.5011 45.7168H34.1305C32.6667 50.2192 30.6723 53.1733 28.5011 53.5627V45.7168ZM28.5011 44.7669V36.845H36.0561C35.673 39.7611 35.1228 42.4397 34.4351 44.7669H28.5109H28.5011ZM28.5011 35.8951V27.9732H36.6456C36.626 30.7278 36.4589 33.3875 36.174 35.8951H28.5011ZM37.6281 27.9732H45.8316C45.7923 30.7373 45.4681 33.397 44.8884 35.8951H37.1761C37.4611 33.4065 37.6084 30.7468 37.6281 27.9732ZM37.6281 27.0233C37.6084 24.2497 37.4611 21.5996 37.1761 19.1014H44.8884C45.4681 21.5996 45.7923 24.2592 45.8316 27.0233H37.6281ZM35.1916 9.28925C34.0912 5.84122 32.6765 3.22907 31.0554 1.75678C34.8379 2.71614 38.2175 5.42328 40.7818 9.28925H35.1916ZM20.8379 9.28925H15.2477C17.8119 5.42328 21.1916 2.71614 24.974 1.75678C23.353 3.22907 21.9382 5.84122 20.8379 9.28925ZM20.553 10.2391C19.8751 12.5758 19.3347 15.2449 18.9614 18.161H11.367C12.1333 15.2354 13.2533 12.5568 14.6484 10.2391H20.553ZM10.3649 18.161H2.77053C3.92982 15.2354 5.62947 12.5568 7.74175 10.2391H13.5186C12.1726 12.5853 11.0919 15.2544 10.3453 18.161H10.3649ZM10.1389 19.1109C9.56912 21.6091 9.25474 24.2687 9.21544 27.0328H0.992281C1.0414 24.2687 1.54246 21.6091 2.41684 19.1109H10.1193H10.1389ZM9.21544 27.9827C9.24491 30.7468 9.56912 33.4065 10.1389 35.9046H2.42667C1.54246 33.4065 1.05123 30.7468 0.992281 27.9827H9.19579H9.21544ZM11.3768 36.8545H18.9614C19.3347 39.7706 19.8751 42.4397 20.553 44.7764H14.6582C13.2632 42.4587 12.1432 39.7896 11.3768 36.8545ZM20.8477 45.7263C21.9481 49.1648 23.3628 51.7675 24.974 53.2398C21.2014 52.2804 17.8316 49.5828 15.2575 45.7263H20.8379H20.8477ZM35.1916 45.7263H40.7719C38.2077 49.5828 34.8379 52.2804 31.0554 53.2398C32.6667 51.777 34.0814 49.1648 35.1818 45.7263H35.1916ZM35.4863 44.7764C36.1642 42.4397 36.7046 39.7706 37.0779 36.8545H44.6625C43.8961 39.7801 42.7761 42.4587 41.3811 44.7764H35.4863ZM45.6744 36.8545H53.2393C52.0702 39.7801 50.3803 42.4587 48.2582 44.7764H42.4912C43.847 42.4397 44.9277 39.7611 45.6744 36.8545ZM45.9004 35.9046C46.4702 33.4065 46.7944 30.7468 46.8239 27.9827H55.0274C54.9782 30.7468 54.4772 33.4065 53.593 35.9046H45.9004ZM46.8239 27.0328C46.7944 24.2782 46.4702 21.6186 45.9004 19.1109H53.6028C54.4772 21.6091 54.9782 24.2687 55.0274 27.0328H46.8239ZM47.374 9.29875H41.9312C39.9467 6.16417 37.4709 3.71351 34.6709 2.18422C39.5733 3.39055 43.9453 5.89821 47.374 9.29875ZM21.3488 2.16522C18.5488 3.69451 16.0632 6.15468 14.0884 9.27975H8.64561C12.0744 5.87921 16.4365 3.37156 21.3488 2.16522ZM8.66526 45.7073H14.0982C16.073 48.8324 18.5586 51.2735 21.3488 52.8028C16.4561 51.5965 12.094 49.0983 8.66526 45.7073ZM34.6414 52.8028C37.4316 51.283 39.9074 48.8324 41.8919 45.7073H47.3249C43.906 49.0983 39.5439 51.5965 34.6414 52.8028Z" fill="#FF50DE"/>
</svg>
