<svg xmlns="http://www.w3.org/2000/svg" fill="none" viewBox="0 0 381.83 381.82">
   <path fill="#ff6ee1" d="M262.63 13.98C165.09-25.56 53.53 21.65 13.98 119.2c-39.54 97.54 7.67 209.11 105.21 248.65 97.54 39.54 209.11-7.67 248.65-105.21 39.54-97.54-7.63-209.1-105.21-248.65zM3.47 184.93l51.78 20.99c-3.33 22.5-3.5 44.2-.7 64.17L14.36 253.8a188.32 188.32 0 0 1-10.9-68.87zm374.9 12.13-51.78-20.99c3.36-22.48 3.52-44.18.74-64.15l40.21 16.3a188.1 188.1 0 0 1 10.83 68.84zm-54.97-22.28-51.78-20.99c5.9-21.54 9.8-41.68 11.73-59.7l40.43 16.4c2.97 19.91 2.9 41.7-.38 64.3zm-106.6-43.21 22.44-55.36 40.75 16.52c-1.86 17.96-5.73 38.2-11.6 59.76zm50.7 24.18a550.8 550.8 0 0 1-19.33 56.62l-55.07-22.33 22.44-55.35zm-26.98-82.7 22.36-55.17c15.15 7.68 20.79 34.4 17.44 71.36L240.5 73.1zm-3.12-1.25-39.82-16.14c23.38-28.88 46-44.15 62.2-39.08zm-1.26 3.11-22.44 55.36-51.6-20.91c10.8-19.56 22.12-36.78 33.29-50.97zm-23.7 58.48-22.45 55.36-55.07-22.33a541.57 541.57 0 0 1 25.56-54.1zm-80.63 31.77-55.43-22.47a272.98 272.98 0 0 1 28.77-52.79l52.14 21.13a549.57 549.57 0 0 0-25.48 54.13zm-1.27 3.11a570.26 570.26 0 0 0-19.4 56.6l-52.13-21.14a275.24 275.24 0 0 1 16.07-57.94l55.43 22.47zm3.12 1.27 55.07 22.32-22.44 55.36-51.92-21.05a541.1 541.1 0 0 1 19.32-56.62zm31.37 80.8-22.44 55.36-40.72-16.5c1.87-17.97 5.73-38.2 11.6-59.77l51.6 20.92zm-23.7 58.47L119 363.88c-15.15-7.68-20.78-34.3-17.46-71.2zm3.11 1.26 39.78 16.13c-23.33 28.77-45.9 44.02-62.1 38.95zm1.26-3.11 22.44-55.36 51.6 20.92c-10.8 19.55-22.11 36.77-33.29 50.96l-40.71-16.5zm23.7-58.48 22.45-55.36 55.07 22.33a551.41 551.41 0 0 1-25.56 54.1l-51.92-21.05zm80.64-31.77 55.43 22.47a272.93 272.93 0 0 1-28.82 52.78l-52.13-21.14A549.57 549.57 0 0 0 250 216.7zm1.26-3.11a549.83 549.83 0 0 0 19.4-56.6l52.13 21.14a272.7 272.7 0 0 1-16.1 57.93zm32.4-123.04c2.8-30.05-.25-53.67-9.38-66.84 25.83 16.19 42.59 46.12 48.84 82.84zM194.22 54.3l-39.46-16c30.05-22 62.92-31.81 92.73-25.44-15.72 3.1-34.35 17.89-53.27 41.44zm-2.2 2.74c-11.15 14.24-22.38 31.45-33.14 51.02l-51.78-21c13.34-18.52 28.49-34.19 44.5-46.42zm-88.11 28.74-51.78-21a187.41 187.41 0 0 1 55.7-41.88l40.22 16.3c-15.87 12.42-30.9 28.09-44.14 46.57zm-1.98 2.82a275.67 275.67 0 0 0-28.7 52.82l-55.44-22.47a186.63 186.63 0 0 1 32-51.48zm-29.97 55.94a275.68 275.68 0 0 0-16.14 57.91L3.7 181.31c.98-19.82 5.17-39.8 12.84-59.25zm-13.5 62.61 51.75 20.97c-5.9 21.54-9.82 41.72-11.7 59.72l-40.4-16.37c-2.96-19.93-2.93-41.72.35-64.32zm39.72 84.18c-2.77 29.98.31 53.54 9.4 66.69-25.77-16.12-42.51-46-48.83-82.67zm89.41 36.24 39.43 15.99c-30.03 21.93-62.84 31.69-92.61 25.33 15.68-3.1 34.3-17.87 53.18-41.32zm2.16-2.75c11.18-14.22 22.41-31.44 33.18-51l51.74 20.97c-13.38 18.5-28.52 34.17-44.53 46.4zm88.15-28.72 51.74 20.97a187.63 187.63 0 0 1-55.78 41.85l-40.18-16.29c15.91-12.4 30.94-28.07 44.18-46.55zm1.98-2.83a275.35 275.35 0 0 0 28.74-52.8l55.43 22.47a186.67 186.67 0 0 1-32.04 51.47zm30-55.92a278.05 278.05 0 0 0 16.17-57.9l52.14 21.14a187.53 187.53 0 0 1-12.88 59.23zm56.1-113.42-39.17-15.88c-5-31.38-17.43-58.1-36.46-76.15a187.35 187.35 0 0 1 75.64 92.03zM230.29 7.58c-26.19-.28-53.75 10.23-79.2 29.27l-39.17-15.88A187.35 187.35 0 0 1 230.28 7.58zM15.97 258.08l39.14 15.87c5.03 31.3 17.44 57.97 36.41 75.96a187.2 187.2 0 0 1-75.55-91.83zm135.6 116.17c26.15.3 53.66-10.18 79.07-29.15l39.14 15.86a187.32 187.32 0 0 1-118.17 13.3z"/>
</svg>
