<svg xmlns="http://www.w3.org/2000/svg" fill="none" viewBox="0 0 1512 906" preserveAspectRatio="none">
  <path stroke="#333" stroke-width="0.5" d="M0 812h1512M0 632.5h1512M0 453h1512M0 273.5h1512M0 94h1512M756-7.9v921.8M600.07-7.9C592.42 29.26 588.4 413.48 588.4 453c0 39.51 4.03 423.73 11.67 460.9M444.13-7.9C428.85 66.44 420.8 373.98 420.8 453c0 79.01 8.04 386.55 23.33 460.9M288.2-7.9c-22.93 111.53-35 342.38-35 460.9 0 118.52 12.07 349.38 35 460.9m-155.92 0A2286.72 2286.72 0 0 1 85.62 453c0-158.02 16.08-312.2 46.66-460.9m779.65 921.8c7.65-37.17 11.67-421.39 11.67-460.9 0-39.51-4.02-423.73-11.67-460.9m155.94 921.8c15.28-74.35 23.33-381.89 23.33-460.9 0-79.01-8.05-386.55-23.33-460.9m155.93 921.8c22.93-111.52 35-342.38 35-460.9 0-118.52-12.07-349.38-35-460.9m155.92 0a2286.58 2286.58 0 0 1 46.66 460.9c0 158.02-16.08 312.2-46.66 460.9"/>
</svg>
