<svg xmlns="http://www.w3.org/2000/svg" xmlns:xlink="http://www.w3.org/1999/xlink" contentStyleType="text/css" height="619px" preserveAspectRatio="none" style="width:813px;height:619px;background:#FFFFFF;" version="1.1" viewBox="0 0 813 619" width="813px" zoomAndPan="magnify"><defs/><g><!--cluster 5de9cc4fcbd8b7f81589743e68d6bda4--><g id="cluster_5de9cc4fcbd8b7f81589743e68d6bda4"><polygon fill="none" points="16,24.15,26,14.15,149,14.15,149,501.48,139,511.48,16,511.48,16,24.15" style="stroke:#181818;stroke-width:1.0;"/><line style="stroke:#181818;stroke-width:1.0;" x1="139" x2="149" y1="24.15" y2="14.15"/><line style="stroke:#181818;stroke-width:1.0;" x1="16" x2="139" y1="24.15" y2="24.15"/><line style="stroke:#181818;stroke-width:1.0;" x1="139" x2="139" y1="24.15" y2="511.48"/><text fill="#000000" font-family="sans-serif" font-size="14" font-weight="bold" lengthAdjust="spacing" textLength="57" x="50" y="40.1451">Wagtail</text></g><!--cluster b6c936ec587320f620297b230c506a12--><g id="cluster_b6c936ec587320f620297b230c506a12"><polygon fill="none" points="235,24.15,245,14.15,504,14.15,504,501.48,494,511.48,235,511.48,235,24.15" style="stroke:#181818;stroke-width:1.0;"/><line style="stroke:#181818;stroke-width:1.0;" x1="494" x2="504" y1="24.15" y2="14.15"/><line style="stroke:#181818;stroke-width:1.0;" x1="235" x2="494" y1="24.15" y2="24.15"/><line style="stroke:#181818;stroke-width:1.0;" x1="494" x2="494" y1="24.15" y2="511.48"/><text fill="#000000" font-family="sans-serif" font-size="14" font-weight="bold" lengthAdjust="spacing" textLength="104" x="313.5" y="40.1451">Sass-compile</text></g><!--cluster d77d5e503ad1439f585ac494268b351b--><g id="cluster_d77d5e503ad1439f585ac494268b351b"><polygon fill="none" points="528,16,538,6,796,6,796,501.48,786,511.48,528,511.48,528,16" style="stroke:#181818;stroke-width:1.0;"/><line style="stroke:#181818;stroke-width:1.0;" x1="786" x2="796" y1="16" y2="6"/><line style="stroke:#181818;stroke-width:1.0;" x1="528" x2="786" y1="16" y2="16"/><line style="stroke:#181818;stroke-width:1.0;" x1="786" x2="786" y1="16" y2="511.48"/><text fill="#000000" font-family="sans-serif" font-size="14" font-weight="bold" lengthAdjust="spacing" textLength="21" x="647.5" y="31.9951">Db</text></g><!--entity 3138e928b4356d5379341900b94cea50--><g id="elem_3138e928b4356d5379341900b94cea50"><rect fill="#F1F1F1" height="78.8906" rx="2.5" ry="2.5" style="stroke:#181818;stroke-width:0.5;" width="96" x="37" y="54.15"/><rect fill="#F1F1F1" height="10" style="stroke:#181818;stroke-width:0.5;" width="15" x="113" y="59.15"/><rect fill="#F1F1F1" height="2" style="stroke:#181818;stroke-width:0.5;" width="4" x="111" y="61.15"/><rect fill="#F1F1F1" height="2" style="stroke:#181818;stroke-width:0.5;" width="4" x="111" y="65.15"/><text fill="#000000" font-family="sans-serif" font-size="14" font-weight="bold" lengthAdjust="spacing" textLength="56" x="52" y="87.1451">wagtail</text><text fill="#000000" font-family="sans-serif" font-size="14" lengthAdjust="spacing" textLength="4" x="52" y="103.442">&#160;</text><text fill="#000000" font-family="sans-serif" font-size="14" lengthAdjust="spacing" textLength="4" x="52" y="119.7389">&#160;</text></g><!--entity 2a2e5e4587b4a34c4a2084badf9150e3--><g id="elem_2a2e5e4587b4a34c4a2084badf9150e3"><ellipse cx="106" cy="231.19" fill="#F1F1F1" rx="8" ry="8" style="stroke:#181818;stroke-width:0.5;"/><text fill="#000000" font-family="sans-serif" font-size="14" lengthAdjust="spacing" textLength="36" x="88" y="261.1851">8000</text></g><!--entity 828679120286b2f26a3f1dcee0287996--><g id="elem_828679120286b2f26a3f1dcee0287996"><rect fill="#F1F1F1" height="39.2969" rx="2.5" ry="2.5" style="stroke:#181818;stroke-width:0.5;" width="61" x="41.5" y="456.19"/><polygon fill="#F1F1F1" points="85.5,461.19,85.5,475.19,97.5,475.19,97.5,467.19,91.5,461.19,85.5,461.19" style="stroke:#181818;stroke-width:0.5;"/><line style="stroke:#181818;stroke-width:0.5;" x1="91.5" x2="91.5" y1="461.19" y2="467.19"/><line style="stroke:#181818;stroke-width:0.5;" x1="97.5" x2="91.5" y1="467.19" y2="467.19"/><text fill="#000000" font-family="sans-serif" font-size="14" lengthAdjust="spacing" textLength="31" x="51.5" y="482.1851">/app</text></g><!--entity 6757a8af9d41fb73b904373826317184--><g id="elem_6757a8af9d41fb73b904373826317184"><rect fill="#F1F1F1" height="78.8906" rx="2.5" ry="2.5" style="stroke:#181818;stroke-width:0.5;" width="143" x="291.5" y="54.15"/><rect fill="#F1F1F1" height="10" style="stroke:#181818;stroke-width:0.5;" width="15" x="414.5" y="59.15"/><rect fill="#F1F1F1" height="2" style="stroke:#181818;stroke-width:0.5;" width="4" x="412.5" y="61.15"/><rect fill="#F1F1F1" height="2" style="stroke:#181818;stroke-width:0.5;" width="4" x="412.5" y="65.15"/><text fill="#000000" font-family="sans-serif" font-size="14" font-weight="bold" lengthAdjust="spacing" textLength="103" x="306.5" y="87.1451">sass-compile</text><text fill="#000000" font-family="sans-serif" font-size="14" lengthAdjust="spacing" textLength="4" x="306.5" y="103.442">&#160;</text><text fill="#000000" font-family="sans-serif" font-size="14" lengthAdjust="spacing" textLength="4" x="306.5" y="119.7389">&#160;</text></g><!--entity c98fbeec62fdd11c66de8336584cc8f9--><g id="elem_c98fbeec62fdd11c66de8336584cc8f9"><rect fill="#F1F1F1" height="39.2969" rx="2.5" ry="2.5" style="stroke:#181818;stroke-width:0.5;" width="98" x="251" y="456.19"/><polygon fill="#F1F1F1" points="332,461.19,332,475.19,344,475.19,344,467.19,338,461.19,332,461.19" style="stroke:#181818;stroke-width:0.5;"/><line style="stroke:#181818;stroke-width:0.5;" x1="338" x2="338" y1="461.19" y2="467.19"/><line style="stroke:#181818;stroke-width:0.5;" x1="344" x2="338" y1="467.19" y2="467.19"/><text fill="#000000" font-family="sans-serif" font-size="14" lengthAdjust="spacing" textLength="68" x="261" y="482.1851">/app/scss</text></g><!--entity db127cbaa3ffd98504f36011df96e2a8--><g id="elem_db127cbaa3ffd98504f36011df96e2a8"><rect fill="#F1F1F1" height="39.2969" rx="2.5" ry="2.5" style="stroke:#181818;stroke-width:0.5;" width="103" x="384.5" y="456.19"/><polygon fill="#F1F1F1" points="470.5,461.19,470.5,475.19,482.5,475.19,482.5,467.19,476.5,461.19,470.5,461.19" style="stroke:#181818;stroke-width:0.5;"/><line style="stroke:#181818;stroke-width:0.5;" x1="476.5" x2="476.5" y1="461.19" y2="467.19"/><line style="stroke:#181818;stroke-width:0.5;" x1="482.5" x2="476.5" y1="467.19" y2="467.19"/><text fill="#000000" font-family="sans-serif" font-size="14" lengthAdjust="spacing" textLength="73" x="394.5" y="482.1851">/app/static</text></g><!--entity 355aeb7ac3f8fa43e8d94fbf0e4b8d6c--><g id="elem_355aeb7ac3f8fa43e8d94fbf0e4b8d6c"><rect fill="#F1F1F1" height="95.1875" rx="2.5" ry="2.5" style="stroke:#181818;stroke-width:0.5;" width="235" x="544.5" y="46"/><rect fill="#F1F1F1" height="10" style="stroke:#181818;stroke-width:0.5;" width="15" x="759.5" y="51"/><rect fill="#F1F1F1" height="2" style="stroke:#181818;stroke-width:0.5;" width="4" x="757.5" y="53"/><rect fill="#F1F1F1" height="2" style="stroke:#181818;stroke-width:0.5;" width="4" x="757.5" y="57"/><text fill="#000000" font-family="sans-serif" font-size="14" font-weight="bold" lengthAdjust="spacing" textLength="20" x="559.5" y="78.9951">db</text><text fill="#000000" font-family="sans-serif" font-size="14" lengthAdjust="spacing" textLength="4" x="559.5" y="95.292">&#160;</text><text fill="#000000" font-family="sans-serif" font-size="14" lengthAdjust="spacing" textLength="195" x="559.5" y="111.5889">image: postgres:12.3-alpine</text><text fill="#000000" font-family="sans-serif" font-size="14" lengthAdjust="spacing" textLength="4" x="559.5" y="127.8857">&#160;</text></g><!--entity d5baecb173d637b4e1f821d6b00b6f89--><g id="elem_d5baecb173d637b4e1f821d6b00b6f89"><rect fill="#F1F1F1" height="39.2969" rx="2.5" ry="2.5" style="stroke:#181818;stroke-width:0.5;" width="189" x="567.5" y="456.19"/><polygon fill="#F1F1F1" points="739.5,461.19,739.5,475.19,751.5,475.19,751.5,467.19,745.5,461.19,739.5,461.19" style="stroke:#181818;stroke-width:0.5;"/><line style="stroke:#181818;stroke-width:0.5;" x1="745.5" x2="745.5" y1="461.19" y2="467.19"/><line style="stroke:#181818;stroke-width:0.5;" x1="751.5" x2="745.5" y1="467.19" y2="467.19"/><text fill="#000000" font-family="sans-serif" font-size="14" lengthAdjust="spacing" textLength="159" x="577.5" y="482.1851">/var/lib/postgresql/data</text></g><!--entity 1624c420083928ef3e240dd88f2e52f0--><g id="elem_1624c420083928ef3e240dd88f2e52f0"><ellipse cx="192" cy="366.19" fill="#F1F1F1" rx="8" ry="8" style="stroke:#181818;stroke-width:0.5;"/><text fill="#000000" font-family="sans-serif" font-size="14" lengthAdjust="spacing" textLength="36" x="174" y="396.1851">8000</text></g><!--entity acbc60fc06d470f8ed88928c08220a2c--><g id="elem_acbc60fc06d470f8ed88928c08220a2c"><rect fill="#F1F1F1" height="39.2969" rx="2.5" ry="2.5" style="stroke:#181818;stroke-width:0.5;" width="76" x="34" y="574.48"/><polygon fill="#F1F1F1" points="93,579.48,93,593.48,105,593.48,105,585.48,99,579.48,93,579.48" style="stroke:#181818;stroke-width:0.5;"/><line style="stroke:#181818;stroke-width:0.5;" x1="99" x2="99" y1="579.48" y2="585.48"/><line style="stroke:#181818;stroke-width:0.5;" x1="105" x2="99" y1="585.48" y2="585.48"/><text fill="#000000" font-family="sans-serif" font-size="14" lengthAdjust="spacing" textLength="46" x="44" y="600.4751">./disco</text></g><!--entity e8b1a4d8a4bd3752df666193a7189643--><g id="elem_e8b1a4d8a4bd3752df666193a7189643"><rect fill="#F1F1F1" height="39.2969" rx="2.5" ry="2.5" style="stroke:#181818;stroke-width:0.5;" width="167" x="178.5" y="574.48"/><polygon fill="#F1F1F1" points="328.5,579.48,328.5,593.48,340.5,593.48,340.5,585.48,334.5,579.48,328.5,579.48" style="stroke:#181818;stroke-width:0.5;"/><line style="stroke:#181818;stroke-width:0.5;" x1="334.5" x2="334.5" y1="579.48" y2="585.48"/><line style="stroke:#181818;stroke-width:0.5;" x1="340.5" x2="334.5" y1="585.48" y2="585.48"/><text fill="#000000" font-family="sans-serif" font-size="14" lengthAdjust="spacing" textLength="137" x="188.5" y="600.4751">./sass-compile/scss</text></g><!--entity 3badac3657d0d3629a525388acb74529--><g id="elem_3badac3657d0d3629a525388acb74529"><rect fill="#F1F1F1" height="39.2969" rx="2.5" ry="2.5" style="stroke:#181818;stroke-width:0.5;" width="160" x="380" y="574.48"/><polygon fill="#F1F1F1" points="523,579.48,523,593.48,535,593.48,535,585.48,529,579.48,523,579.48" style="stroke:#181818;stroke-width:0.5;"/><line style="stroke:#181818;stroke-width:0.5;" x1="529" x2="529" y1="579.48" y2="585.48"/><line style="stroke:#181818;stroke-width:0.5;" x1="535" x2="529" y1="585.48" y2="585.48"/><text fill="#000000" font-family="sans-serif" font-size="14" lengthAdjust="spacing" textLength="130" x="390" y="600.4751">./disco/disco/static</text></g><!--entity 7a600a491cfa836be11bce188a3fa3d5--><g id="elem_7a600a491cfa836be11bce188a3fa3d5"><rect fill="#F1F1F1" height="39.2969" rx="2.5" ry="2.5" style="stroke:#181818;stroke-width:0.5;" width="127" x="598.5" y="574.48"/><polygon fill="#F1F1F1" points="708.5,579.48,708.5,593.48,720.5,593.48,720.5,585.48,714.5,579.48,708.5,579.48" style="stroke:#181818;stroke-width:0.5;"/><line style="stroke:#181818;stroke-width:0.5;" x1="714.5" x2="714.5" y1="579.48" y2="585.48"/><line style="stroke:#181818;stroke-width:0.5;" x1="720.5" x2="714.5" y1="585.48" y2="585.48"/><text fill="#000000" font-family="sans-serif" font-size="14" lengthAdjust="spacing" textLength="97" x="608.5" y="600.4751">postgres-data</text></g><!--link 3138e928b4356d5379341900b94cea50 to 2a2e5e4587b4a34c4a2084badf9150e3--><g id="link_3138e928b4356d5379341900b94cea50_2a2e5e4587b4a34c4a2084badf9150e3"><path codeLine="34" d="M91.02,133.45 C95.82,164.44 102.16,205.36 104.78,222.31 " fill="none" id="3138e928b4356d5379341900b94cea50-2a2e5e4587b4a34c4a2084badf9150e3" style="stroke:#181818;stroke-width:1.0;"/></g><!--link 2a2e5e4587b4a34c4a2084badf9150e3 to 1624c420083928ef3e240dd88f2e52f0--><g id="link_2a2e5e4587b4a34c4a2084badf9150e3_1624c420083928ef3e240dd88f2e52f0"><path codeLine="35" d="M111.12,240.11 C126.45,263.82 171.86,334.04 187.01,357.47 " fill="none" id="2a2e5e4587b4a34c4a2084badf9150e3-1624c420083928ef3e240dd88f2e52f0" style="stroke:#181818;stroke-width:1.0;"/></g><!--link 828679120286b2f26a3f1dcee0287996 to acbc60fc06d470f8ed88928c08220a2c--><g id="link_828679120286b2f26a3f1dcee0287996_acbc60fc06d470f8ed88928c08220a2c"><path codeLine="36" d="M72,495.78 C72,517.4 72,552.57 72,574.2 " fill="none" id="828679120286b2f26a3f1dcee0287996-acbc60fc06d470f8ed88928c08220a2c" style="stroke:#181818;stroke-width:1.0;"/><text fill="#000000" font-family="sans-serif" font-size="13" lengthAdjust="spacing" textLength="82" x="73" y="540.5469">delegated,rw</text></g><!--link 3138e928b4356d5379341900b94cea50 to 828679120286b2f26a3f1dcee0287996--><g id="link_3138e928b4356d5379341900b94cea50_828679120286b2f26a3f1dcee0287996"><path codeLine="37" d="M74.64,133.37 C69.74,153.7 64.44,179.11 62,202.19 C51.97,297.1 63.176,405.5663 68.726,449.9763 " fill="none" id="3138e928b4356d5379341900b94cea50-to-828679120286b2f26a3f1dcee0287996" style="stroke:#181818;stroke-width:1.0;stroke-dasharray:7.0,7.0;"/><polygon fill="#181818" points="69.47,455.93,72.3231,446.5034,68.85,450.9686,64.3848,447.4955,69.47,455.93" style="stroke:#181818;stroke-width:1.0;"/><text fill="#000000" font-family="sans-serif" font-size="13" lengthAdjust="spacing" textLength="23" x="59" y="303.2569">use</text></g><!--link c98fbeec62fdd11c66de8336584cc8f9 to e8b1a4d8a4bd3752df666193a7189643--><g id="link_c98fbeec62fdd11c66de8336584cc8f9_e8b1a4d8a4bd3752df666193a7189643"><path codeLine="38" d="M293.81,495.78 C286.74,517.4 275.25,552.57 268.19,574.2 " fill="none" id="c98fbeec62fdd11c66de8336584cc8f9-e8b1a4d8a4bd3752df666193a7189643" style="stroke:#181818;stroke-width:1.0;"/><text fill="#000000" font-family="sans-serif" font-size="13" lengthAdjust="spacing" textLength="82" x="284" y="540.5469">delegated,rw</text></g><!--link 6757a8af9d41fb73b904373826317184 to c98fbeec62fdd11c66de8336584cc8f9--><g id="link_6757a8af9d41fb73b904373826317184_c98fbeec62fdd11c66de8336584cc8f9"><path codeLine="39" d="M356.55,133.5 C343.19,214.13 313.9012,390.9608 304.1012,450.0808 " fill="none" id="6757a8af9d41fb73b904373826317184-to-c98fbeec62fdd11c66de8336584cc8f9" style="stroke:#181818;stroke-width:1.0;stroke-dasharray:7.0,7.0;"/><polygon fill="#181818" points="303.12,456,308.5379,447.7753,303.9377,451.0673,300.6456,446.467,303.12,456" style="stroke:#181818;stroke-width:1.0;"/><text fill="#000000" font-family="sans-serif" font-size="13" lengthAdjust="spacing" textLength="23" x="331" y="303.2569">use</text></g><!--link db127cbaa3ffd98504f36011df96e2a8 to 3badac3657d0d3629a525388acb74529--><g id="link_db127cbaa3ffd98504f36011df96e2a8_3badac3657d0d3629a525388acb74529"><path codeLine="40" d="M439.91,495.78 C444.37,517.4 451.63,552.57 456.09,574.2 " fill="none" id="db127cbaa3ffd98504f36011df96e2a8-3badac3657d0d3629a525388acb74529" style="stroke:#181818;stroke-width:1.0;"/><text fill="#000000" font-family="sans-serif" font-size="13" lengthAdjust="spacing" textLength="82" x="450" y="540.5469">delegated,rw</text></g><!--link 6757a8af9d41fb73b904373826317184 to db127cbaa3ffd98504f36011df96e2a8--><g id="link_6757a8af9d41fb73b904373826317184_db127cbaa3ffd98504f36011df96e2a8"><path codeLine="41" d="M370.47,133.5 C385.95,214.13 419.8988,390.9876 431.2488,450.1076 " fill="none" id="6757a8af9d41fb73b904373826317184-to-db127cbaa3ffd98504f36011df96e2a8" style="stroke:#181818;stroke-width:1.0;stroke-dasharray:7.0,7.0;"/><polygon fill="#181818" points="432.38,456,434.6114,446.4073,431.4373,451.0897,426.7549,447.9156,432.38,456" style="stroke:#181818;stroke-width:1.0;"/><text fill="#000000" font-family="sans-serif" font-size="13" lengthAdjust="spacing" textLength="23" x="404" y="303.2569">use</text></g><!--link d5baecb173d637b4e1f821d6b00b6f89 to 7a600a491cfa836be11bce188a3fa3d5--><g id="link_d5baecb173d637b4e1f821d6b00b6f89_7a600a491cfa836be11bce188a3fa3d5"><path codeLine="42" d="M662,495.78 C662,517.4 662,552.57 662,574.2 " fill="none" id="d5baecb173d637b4e1f821d6b00b6f89-7a600a491cfa836be11bce188a3fa3d5" style="stroke:#181818;stroke-width:1.0;"/><text fill="#000000" font-family="sans-serif" font-size="13" lengthAdjust="spacing" textLength="14" x="663" y="540.5469">rw</text></g><!--link 355aeb7ac3f8fa43e8d94fbf0e4b8d6c to d5baecb173d637b4e1f821d6b00b6f89--><g id="link_355aeb7ac3f8fa43e8d94fbf0e4b8d6c_d5baecb173d637b4e1f821d6b00b6f89"><path codeLine="43" d="M662,141.6 C662,225.65 662,392.27 662,449.75 " fill="none" id="355aeb7ac3f8fa43e8d94fbf0e4b8d6c-to-d5baecb173d637b4e1f821d6b00b6f89" style="stroke:#181818;stroke-width:1.0;stroke-dasharray:7.0,7.0;"/><polygon fill="#181818" points="662,455.75,666,446.75,662,450.75,658,446.75,662,455.75" style="stroke:#181818;stroke-width:1.0;"/><text fill="#000000" font-family="sans-serif" font-size="13" lengthAdjust="spacing" textLength="23" x="663" y="303.2569">use</text></g><!--SRC=[dLJBZXCn4BpFLunoWeWajjkFzXuuyGSSE20ERNSx6YcRXCp08Y7-7MSsMPBTWoKk6IboTLMvgasxtU7fSVWrxBVT_i3IBxxGTg9Xj-Xfx1rBpDcMd1XJAAWTnc11FB9FJBR_tVNvy7Wyx6K_zQ019HfC5fnd1o62rL6f56qMSgh_sYsNJy_Zbykkwxvrxzxt2rHApMo6Z3Yn3aEo13PRCWfj8YvHEoNGqMaQ2kMfNspeU9mnQD27g8sgtsIAyGH5SnQfVuGOVVVdOkipZUFgh7NOoOnCFaVmaYiT65Ly7H53Cg2oKvwqkVVcWmk4L29RNLA059M506WywA3Hpjx66uwBmNl9cp6FuyoU8vOaahqfp5fdxraGm3kqEME9Ru0JJKEUePoq2JbHTLeuebEsW5TQrsloOWXVB7zAp-T3O2TE0R6s48j3Hzb6QpmcS3gz2j4vaXGeGy52DMlaQ4igIcoggUVPAAUplU6HjlBG7m_Zj3t9-A3D6bQqEmvxUMNz9vqsko5jhaU_xpPC4ptBSuaa9ns0FTJaHHSqklQh5iSNZDNENKkqDxKQHYc4sZKf8COgPiHIssEAkk5TRtWOys66KKxPgvALPnjKGQc8YiyAZL5ayXtiDiX_cGacJPQHR688pd3ntki8L0iGlOMtp9VVc_2WrhdUhNU15OCtaPnnW5Zb1UlCRUxNorgzN5KWhnJPg7CX19z4wvH5LpGK0dPTSmDNl6glMUl0FAKPGsipvocjLFg7Vi6oaorDmXzEJuksnVMQr-kFpOVXFFd7A8kkjOcppbRqRtKs7uoBpYRzLMThxMUThNhzlyuc_OlEnZxFEbjDFa-RqswzHbTrBTABkhy0]--></g></svg>