<?xml version="1.0" encoding="UTF-8"?><svg id="Layer_2" xmlns="http://www.w3.org/2000/svg" viewBox="0 0 830.4 290.36"><defs><style>.cls-1{fill:none;stroke:#1e1e1c;stroke-linecap:round;stroke-linejoin:round;stroke-width:3.75px;}.cls-2{fill:#1e1e1c;}</style></defs><g id="Layer_1-2"><rect class="cls-1" x="356.46" y="63.55" width="30.84" height="30.84"/><polygon class="cls-1" points="294.79 94.38 263.95 94.38 263.95 63.55 294.79 94.38"/><rect class="cls-1" x="233.11" y="63.55" width="30.84" height="61.67"/><polygon class="cls-1" points="294.79 32.71 294.79 94.38 325.62 125.22 325.62 32.71 294.79 32.71"/><rect class="cls-1" x="325.62" y="1.87" width="30.84" height="92.51"/><line class="cls-1" x1="387.3" y1="94.38" x2="828.53" y2="94.38"/><path class="cls-2" d="m4.6,81.06v45.97H0v-45.97h4.6Z"/><path class="cls-2" d="m27.58,94.48c9.19,0,14.16,6.2,14.74,13.86l-4.09.29c-.44-6.06-4.16-10.43-10.8-10.43s-11.16,5.18-11.16,12.99,4.52,12.99,11.16,12.99,10.36-4.52,10.8-10.58l4.09.44c-.58,7.66-5.55,13.86-14.74,13.86s-15.98-6.64-15.98-16.71,6.57-16.71,15.98-16.71Z"/><path class="cls-2" d="m77.63,116.23c-1.53,7.22-6.79,11.67-14.52,11.67-9.19,0-16.05-6.49-16.05-16.27s6.79-17.15,15.76-17.15c9.92,0,14.89,7.15,14.89,15.76v2.04h-26.05c.29,7,5.18,11.97,11.46,11.97,5.84,0,9.41-2.92,10.73-8.54l3.79.51Zm-4.67-7.08c-.15-5.84-3.43-11.16-10.14-11.16-6.27,0-10.36,5.25-11.09,11.16h21.23Z"/><path class="cls-2" d="m88.79,81.06v45.97h-4.45v-45.97h4.45Z"/><path class="cls-2" d="m121.92,121.7c0,1.68,1.02,2.48,2.63,2.48.73,0,1.97-.29,2.85-.8v2.41c-.95,1.09-1.97,1.9-4.16,1.9-3.14,0-5.4-2.7-5.55-6.71-1.68,3.72-6.35,6.93-11.75,6.93-5.91,0-9.85-3.28-9.85-8.76,0-5.98,5.25-8.39,13.13-10l8.46-1.75v-1.6c0-4.82-2.85-7.81-7.81-7.81s-7.95,2.99-9.05,7.08l-3.79-.73c1.24-5.69,5.91-9.85,12.77-9.85,7.88,0,12.11,4.16,12.11,11.97v15.25Zm-4.23-11.02l-7.73,1.68c-5.76,1.24-9.34,2.41-9.34,6.64,0,2.99,1.97,5.47,6.13,5.47,6.2,0,10.94-4.74,10.94-11.82v-1.97Z"/><path class="cls-2" d="m136.88,127.03h-4.45v-31.67h4.45v5.84c1.53-3.87,5.91-6.71,10.65-6.71,8.17,0,11.6,5.33,11.6,12.91v19.63h-4.45v-19.77c0-5.62-2.92-9.27-8.32-9.27-5.04,0-9.49,3.94-9.49,10.07v18.97Z"/><path class="cls-2" d="m191.75,120.1c-1.39,4.01-5.55,7.81-11.67,7.81-9.41,0-14.67-7.37-14.67-16.71s5.25-16.71,14.67-16.71c6.13,0,10.29,3.87,11.67,7.88v-21.31h4.45v45.97h-4.45v-6.93Zm.15-10c0-7.59-4.96-11.97-11.24-11.97-6.71,0-10.58,5.03-10.58,13.06s3.87,13.06,10.58,13.06c6.28,0,11.24-4.38,11.24-11.97v-2.19Z"/><path class="cls-2" d="m4.6,156.52v42.1h26.41v3.87H0v-45.97h4.6Z"/><path class="cls-2" d="m37.8,156.52h4.74v5.91h-4.74v-5.91Zm4.6,14.3v31.67h-4.45v-31.67h4.45Z"/><path class="cls-2" d="m80.33,191.69c-1.53,7.22-6.79,11.67-14.52,11.67-9.19,0-16.05-6.49-16.05-16.27s6.79-17.15,15.76-17.15c9.92,0,14.89,7.15,14.89,15.76v2.04h-26.05c.29,7.01,5.18,11.97,11.46,11.97,5.84,0,9.41-2.92,10.73-8.54l3.79.51Zm-4.67-7.08c-.15-5.84-3.43-11.16-10.14-11.16-6.28,0-10.36,5.25-11.09,11.16h21.23Z"/><path class="cls-2" d="m101.86,169.95c9.19,0,14.16,6.2,14.74,13.86l-4.09.29c-.44-6.06-4.16-10.43-10.8-10.43s-11.16,5.18-11.16,12.99,4.52,12.99,11.16,12.99,10.36-4.52,10.8-10.58l4.09.44c-.58,7.66-5.55,13.86-14.74,13.86s-15.98-6.64-15.98-16.71,6.57-16.71,15.98-16.71Z"/><path class="cls-2" d="m128.42,202.49h-4.45v-45.97h4.45v20.14c1.53-3.87,5.91-6.71,10.65-6.71,8.17,0,11.6,5.33,11.6,12.92v19.63h-4.45v-19.78c0-5.62-2.92-9.27-8.32-9.27-5.04,0-9.49,3.94-9.49,10.07v18.97Z"/><path class="cls-2" d="m160.88,174.11h-4.89v-2.19l1.9-.37c2.92-.58,3.5-1.97,4.16-5.03l.95-4.52h2.26v8.83h9.19v3.28h-9.19v21.45c0,2.85,1.17,4.23,4.09,4.23,2.19,0,4.38-1.09,6.2-2.19v3.14c-2.26,1.75-4.52,2.63-7.73,2.63-4.23,0-6.93-2.12-6.93-7.88v-21.38Z"/><path class="cls-2" d="m209.84,191.69c-1.53,7.22-6.79,11.67-14.52,11.67-9.19,0-16.05-6.49-16.05-16.27s6.79-17.15,15.76-17.15c9.92,0,14.89,7.15,14.89,15.76v2.04h-26.05c.29,7.01,5.18,11.97,11.46,11.97,5.84,0,9.41-2.92,10.73-8.54l3.79.51Zm-4.67-7.08c-.15-5.84-3.43-11.16-10.14-11.16-6.27,0-10.36,5.25-11.09,11.16h21.23Z"/><path class="cls-2" d="m221.73,202.49h-4.45v-31.67h4.45v5.84c1.53-3.87,5.91-6.71,10.65-6.71,8.17,0,11.6,5.33,11.6,12.92v19.63h-4.45v-19.78c0-5.62-2.92-9.27-8.32-9.27-5.04,0-9.49,3.94-9.49,10.07v18.97Z"/><path class="cls-2" d="m254.42,191.33c.66,5.47,4.38,8.54,10.43,8.54,4.89,0,8.32-1.82,8.32-5.55,0-3.5-2.48-4.6-6.93-5.4l-5.47-.95c-5.55-.95-8.98-3.5-8.98-8.61,0-5.69,4.74-9.41,11.67-9.41,8.17,0,12.92,3.87,13.43,11.38l-3.43.29c-.8-5.69-4.16-8.17-10-8.17-4.52,0-7.52,2.04-7.52,5.4,0,3.07,1.82,4.6,5.76,5.25l5.84.95c6.2,1.02,9.85,3.21,9.85,8.83,0,6.2-5.55,9.49-12.48,9.49-7.66,0-13.57-3.79-14.08-11.6l3.58-.44Z"/><path class="cls-2" d="m285.94,174.11h-4.89v-2.19l1.9-.37c2.92-.58,3.5-1.97,4.16-5.03l.95-4.52h2.26v8.83h9.19v3.28h-9.19v21.45c0,2.85,1.17,4.23,4.09,4.23,2.19,0,4.38-1.09,6.2-2.19v3.14c-2.26,1.75-4.52,2.63-7.73,2.63-4.23,0-6.93-2.12-6.93-7.88v-21.38Z"/><path class="cls-2" d="m334.9,191.69c-1.53,7.22-6.79,11.67-14.52,11.67-9.19,0-16.05-6.49-16.05-16.27s6.79-17.15,15.76-17.15c9.92,0,14.89,7.15,14.89,15.76v2.04h-26.05c.29,7.01,5.18,11.97,11.46,11.97,5.84,0,9.41-2.92,10.73-8.54l3.79.51Zm-4.67-7.08c-.15-5.84-3.43-11.16-10.14-11.16-6.27,0-10.36,5.25-11.09,11.16h21.23Z"/><path class="cls-2" d="m342.2,156.52h4.74v5.91h-4.74v-5.91Zm4.6,14.3v31.67h-4.45v-31.67h4.45Z"/><path class="cls-2" d="m360.73,202.49h-4.45v-31.67h4.45v5.84c1.53-3.87,5.91-6.71,10.65-6.71,8.17,0,11.6,5.33,11.6,12.92v19.63h-4.45v-19.78c0-5.62-2.92-9.27-8.32-9.27-5.04,0-9.49,3.94-9.49,10.07v18.97Z"/><path class="cls-2" d="m32.25,269.85v-37.87h4.38v45.97h-3.65l-28.6-39.62v39.62H0v-45.97h5.11l27.14,37.87Z"/><path class="cls-2" d="m59.47,278.83c-8.98,0-15.83-6.86-15.83-16.71s6.86-16.71,15.83-16.71,15.91,6.86,15.91,16.71-6.86,16.71-15.91,16.71Zm0-3.5c7.15,0,11.24-5.47,11.24-13.21s-4.09-13.21-11.24-13.21-11.16,5.47-11.16,13.21,4.09,13.21,11.16,13.21Z"/><path class="cls-2" d="m99.6,250.74c-1.82-.95-2.92-1.24-4.82-1.24-4.6,0-8.32,4.74-8.32,11.09v17.37h-4.45v-31.67h4.45v6.64c1.24-3.65,4.45-7.52,9.12-7.52,1.97,0,3.36.44,4.52,1.46l-.51,3.87Z"/><path class="cls-2" d="m133.23,271.97h.29l7.81-25.68h4.23l-10.07,31.67h-4.23l-7.37-25.25h-.29l-7.3,25.25h-4.23l-10.14-31.67h4.45l7.95,25.68h.29l7.3-25.68h3.87l7.44,25.68Z"/><path class="cls-2" d="m174.68,272.63c0,1.68,1.02,2.48,2.63,2.48.73,0,1.97-.29,2.85-.8v2.41c-.95,1.09-1.97,1.9-4.16,1.9-3.14,0-5.4-2.7-5.55-6.71-1.68,3.72-6.35,6.93-11.75,6.93-5.91,0-9.85-3.28-9.85-8.76,0-5.98,5.25-8.39,13.13-10l8.46-1.75v-1.61c0-4.82-2.85-7.81-7.81-7.81s-7.95,2.99-9.05,7.08l-3.79-.73c1.24-5.69,5.91-9.85,12.77-9.85,7.88,0,12.11,4.16,12.11,11.97v15.25Zm-4.23-11.02l-7.73,1.68c-5.76,1.24-9.34,2.41-9.34,6.64,0,2.99,1.97,5.47,6.13,5.47,6.2,0,10.95-4.74,10.95-11.82v-1.97Z"/><path class="cls-2" d="m188.54,290.36l5.33-12.62-13.43-31.45h4.67l10.87,26.05h.29l10.51-26.05h4.38l-18.24,44.07h-4.38Z"/><path class="cls-2" d="m488.64,156.52l18.75,45.97h-9.7l-4.6-11.38h-19.56l-4.45,11.38h-9.19l18.61-45.97h10.14Zm-12.33,27.58h14.01l-6.93-17.22h-.29l-6.79,17.22Z"/><path class="cls-2" d="m526.07,169.44c9.56,0,14.81,6.28,15.54,14.01l-7.37.51c-.66-4.82-3.36-7.81-8.17-7.81s-8.17,3.58-8.17,10.29,3.36,10.21,8.17,10.21,7.52-3.06,8.17-7.95l7.37.66c-.73,7.73-5.98,14.01-15.54,14.01s-17-6.71-17-16.93,7.08-17,17-17Z"/><path class="cls-2" d="m548.1,176.44h-4.6v-5.18l2.19-.37c3.14-.51,4.01-2.12,4.74-5.11l1.02-4.38h5.33v8.9h8.76v6.13h-8.76v15.91c0,2.77,1.24,4.01,3.87,4.01,1.75,0,3.58-.66,5.47-1.53v5.76c-2.33,1.75-4.96,2.77-8.9,2.77-4.96,0-9.12-2.19-9.12-9.05v-17.88Z"/><path class="cls-2" d="m570.94,156.52h8.97v8.54h-8.97v-8.54Zm8.9,13.79v32.18h-8.76v-32.18h8.76Z"/><path class="cls-2" d="m596.4,202.49l-12.7-32.18h9.19l8.54,22.47h.29l8.46-22.47h8.54l-12.7,32.18h-9.63Z"/><path class="cls-2" d="m652.66,191.98c-1.68,7.15-7.22,11.38-15.47,11.38-9.92,0-17.07-6.35-17.07-16.49s7.22-17.44,16.86-17.44c10.51,0,15.91,7.3,15.91,16.05v3.14h-24.15c.29,4.74,4.01,8.1,8.76,8.1,4.3,0,6.86-1.82,8.1-5.47l7.08.73Zm-8.32-8.83c-.29-3.72-2.55-7.3-7.44-7.3s-7.22,3.28-8.03,7.3h15.47Z"/><path class="cls-2" d="m478.28,244.9c9.56,0,14.81,6.28,15.54,14.01l-7.37.51c-.66-4.82-3.36-7.81-8.17-7.81s-8.17,3.58-8.17,10.29,3.36,10.21,8.17,10.21,7.52-3.06,8.17-7.95l7.37.66c-.73,7.73-5.98,14.01-15.54,14.01s-17-6.71-17-16.93,7.08-17,17-17Z"/><path class="cls-2" d="m499.07,231.98h8.97v8.54h-8.97v-8.54Zm8.9,13.79v32.18h-8.76v-32.18h8.76Z"/><path class="cls-2" d="m516.43,251.9h-4.6v-5.18l2.19-.37c3.14-.51,4.01-2.12,4.74-5.11l1.02-4.38h5.33v8.9h8.76v6.13h-8.76v15.91c0,2.77,1.24,4.01,3.87,4.01,1.75,0,3.58-.66,5.47-1.53v5.76c-2.34,1.75-4.96,2.77-8.9,2.77-4.96,0-9.12-2.19-9.12-9.05v-17.88Z"/><path class="cls-2" d="m539.27,231.98h8.97v8.54h-8.97v-8.54Zm8.9,13.79v32.18h-8.76v-32.18h8.76Z"/><path class="cls-2" d="m554.3,252.27v-6.49h27.14v5.98l-17.08,19.7h17.51v6.49h-28.02v-5.98l16.78-19.7h-16.34Z"/><path class="cls-2" d="m617.42,267.44c-1.68,7.15-7.22,11.38-15.47,11.38-9.92,0-17.07-6.35-17.07-16.49s7.22-17.44,16.86-17.44c10.51,0,15.91,7.3,15.91,16.05v3.14h-24.15c.29,4.74,4.01,8.1,8.76,8.1,4.31,0,6.86-1.82,8.1-5.47l7.08.73Zm-8.32-8.83c-.29-3.72-2.55-7.3-7.44-7.3s-7.22,3.28-8.03,7.3h15.47Z"/><path class="cls-2" d="m632.01,277.95h-8.76v-32.18h8.76v5.25c1.6-3.65,5.69-6.13,10.51-6.13,8.61,0,11.75,5.84,11.75,12.99v20.07h-8.76v-18.32c0-4.96-1.97-7.81-6.28-7.81s-7.22,3.5-7.22,8.9v17.22Z"/><path class="cls-2" d="m666.52,267.01c.51,3.87,3.43,5.84,7.88,5.84,3.21,0,5.84-1.09,5.84-3.43,0-2.19-1.46-3.14-4.67-3.65l-5.11-.88c-6.86-1.09-10.65-3.65-10.65-9.63s5.18-10.36,13.35-10.36c8.9,0,14.23,4.01,14.81,11.16l-7.22.29c-.58-3.65-3.07-5.47-7.66-5.47-3.14,0-5.18,1.39-5.18,3.58,0,1.75,1.17,2.77,3.5,3.14l6.13,1.02c6.79,1.09,10.8,3.94,10.8,10,0,6.57-5.69,10.21-14.01,10.21s-14.81-3.65-15.4-11.53l7.59-.29Z"/><path class="cls-2" d="m703.95,249.57v-3.28h4.89v-4.45c0-6.28,3.5-10.73,9.92-10.73,5.33,0,8.03,2.33,9.49,7l-3.28,1.24c-.8-2.85-2.92-4.96-6.2-4.96-3.72,0-5.47,2.55-5.47,6.86v5.04h9.12v3.28h-9.12v28.38h-4.45v-28.38h-4.89Z"/><path class="cls-2" d="m749.04,246.28h4.45v31.67h-4.45v-5.84c-1.53,3.87-5.76,6.71-10.51,6.71-8.17,0-11.38-5.33-11.38-12.92v-19.63h4.45v19.77c0,5.62,2.7,9.27,8.1,9.27,5.03,0,9.34-3.94,9.34-10.07v-18.97Z"/><path class="cls-2" d="m766.7,277.95h-4.45v-31.67h4.45v5.84c1.53-3.87,5.91-6.71,10.65-6.71,8.17,0,11.6,5.33,11.6,12.92v19.63h-4.45v-19.78c0-5.62-2.92-9.27-8.32-9.27-5.03,0-9.49,3.94-9.49,10.07v18.97Z"/><path class="cls-2" d="m821.57,271.02c-1.39,4.01-5.55,7.81-11.67,7.81-9.41,0-14.67-7.37-14.67-16.71s5.25-16.71,14.67-16.71c6.13,0,10.29,3.87,11.67,7.88v-21.31h4.45v45.97h-4.45v-6.93Zm.15-10c0-7.59-4.96-11.97-11.24-11.97-6.71,0-10.58,5.03-10.58,13.06s3.87,13.06,10.58,13.06c6.28,0,11.24-4.38,11.24-11.97v-2.19Z"/></g></svg>