<?xml version="1.0" encoding="UTF-8"?><svg id="NL_Branding_Logo" xmlns="http://www.w3.org/2000/svg" viewBox="0 0 565.07 170.08"><defs><style>.cls-1{fill:none;}.cls-2{fill:#f16900;}</style></defs><rect class="cls-1" width="565.07" height="170.08"/><path class="cls-2" d="M151.12,114.33v-2.09c9.86-2.69,18.13-9.91,18.13-28.68v-31.33c0-8.43,.8-16.15,3.27-23.34-2.62-.84-5.87-1.84-12-1.84-11.57,0-20.37,5.88-20.55,20.03v94.16h83.47v-26.9h-72.32Z"/><path class="cls-2" d="M114.63,27.02c-6.13,0-9.09,.99-11.71,1.84,2.47,7.19,2.94,14.92,2.94,21.49v30.95c0,11.05,2.77,17.86,6.67,23.47l-2.28,1.51L60.73,28.71H28.85v112.52h28.85v-47.27c0-8.88-1.17-17.4-3.36-22.69,1.08-.64,2.02-1.19,2.02-1.19,2.96,5.48,5.31,9.7,8.14,13.95l37.26,57.2h33.25l-.02-93.73c0-14.35-8.68-20.48-20.37-20.48Z"/><path class="cls-2" d="M250.34,107.04h7.23l14.83,26.29v-26.29h5.76v34.19h-7.23l-14.83-26.29v26.29h-5.76v-34.19Z"/><path class="cls-2" d="M308.79,132.35c-1.04,7.48-7.41,9.5-12.13,9.5-6.43,0-12.56-3.62-12.56-14.09,0-10.6,6.49-14.03,12.38-14.03s12.44,3.13,12.44,13.97v.92h-18.99c.12,5.7,2.45,8.64,6.92,8.64,3.55,0,5.7-1.84,6.25-4.9h5.7Zm-5.76-7.23c-.37-4.53-2.7-6.92-6.5-6.92s-6.13,2.39-6.56,6.92h13.05Z"/><path class="cls-2" d="M315.34,118.81h-4.11v-4.47h2.39c2.08,0,2.82-.86,2.82-2.88v-5.45h4.78v8.33h7.97v4.47h-7.97v13.79c0,2.88,.8,4.41,3.86,4.41,1.41,0,2.94-.31,3.74-.67v4.66c-.8,.43-2.76,.86-4.96,.86-6.43,0-8.52-3.55-8.52-8.58v-14.46Z"/><path class="cls-2" d="M333.97,100.67h5.88v16.54c1.23-1.65,3.49-3.49,8.09-3.49s9.13,1.84,9.13,10.91v16.61h-5.88v-15.44c0-4.53-1.04-6.98-5.33-6.98-3,0-4.96,1.23-6,2.39v20.04h-5.88v-40.56Z"/><path class="cls-2" d="M387.28,132.35c-1.04,7.48-7.41,9.5-12.13,9.5-6.43,0-12.56-3.62-12.56-14.09,0-10.6,6.49-14.03,12.38-14.03s12.44,3.13,12.44,13.97v.92h-18.99c.12,5.7,2.45,8.64,6.92,8.64,3.55,0,5.7-1.84,6.25-4.9h5.7Zm-5.76-7.23c-.37-4.53-2.7-6.92-6.5-6.92s-6.13,2.39-6.56,6.92h13.05Z"/><path class="cls-2" d="M393.16,114.33h5.02v3.55c1.29-2.45,3.43-4.17,7.23-4.17,1.84,0,2.82,.37,3.19,.55v5.15c-.92-.37-2.27-.74-3.92-.74-3,0-4.78,1.23-5.64,2.51v20.04h-5.88v-26.9Z"/><path class="cls-2" d="M412.58,100.67h5.88v40.56h-5.88v-40.56Z"/><path class="cls-2" d="M441.93,137.68c-1.41,1.9-4.66,4.17-9.37,4.17-5.39,0-8.58-3-8.58-7.6,0-6.49,6.37-7.84,10.72-8.21l6.25-.55v-.74c0-4.17-.67-6.49-5.02-6.49-3.92,0-5.27,1.9-5.27,5.27h-5.64c.12-8.09,6.31-9.8,11.52-9.8,7.78,0,10.23,3.86,10.23,10.42v11.52c0,1.04,.43,1.59,1.53,1.59,.74,0,1.59-.25,2.21-.55v4.17c-.86,.49-2.45,.98-4.23,.98-3.62,0-4.35-2.02-4.35-3.8v-.37Zm-.98-8.7l-5.09,.55c-3.8,.43-6.07,1.72-6.07,4.47,0,2.21,1.47,3.55,4.47,3.55,2.7,0,4.84-1.04,6.68-2.57v-6Z"/><path class="cls-2" d="M454.61,114.33h5.02v3.49c1.47-2.27,4.23-4.11,8.88-4.11s9.19,1.84,9.19,10.91v16.61h-5.88v-15.44c0-4.53-1.04-6.98-5.33-6.98-3,0-4.96,1.23-6,2.39v20.04h-5.88v-26.9Z"/><path class="cls-2" d="M502.77,137.92c-1.16,1.78-3.74,3.92-8.15,3.92-5.76,0-11.4-3.8-11.4-13.97,0-10.23,5.58-14.15,11.4-14.15,4.04,0,6.43,2.02,7.35,3.25v-16.3h5.88v40.56h-5.08v-3.31Zm-.8-16.97c-1.35-1.41-3.37-2.27-5.76-2.27-4.66,0-7.05,3.25-7.05,9.07s2.39,9.13,7.05,9.13c2.39,0,4.41-.86,5.76-2.27v-13.66Z"/><path class="cls-2" d="M519.12,132.53c.18,3.06,2.63,5.09,6.37,5.09,3,0,5.15-1.29,5.15-3.68,0-2.94-3.19-3.31-8.09-4.72-3.86-1.1-8.09-2.63-8.09-7.78,0-5.64,5.21-7.72,10.35-7.72,5.94,0,10.36,2.76,10.72,8.46h-5.76c-.12-2.51-2.02-4.29-5.15-4.29-2.45,0-4.41,1.1-4.41,3.19,0,2.82,3.49,3.12,8.27,4.47,3.92,1.1,7.97,2.82,7.97,8.03,0,6.19-5.64,8.27-11.09,8.27-6.62,0-11.52-3.06-12.01-9.31h5.76Z"/></svg>