<?xml version="1.0" encoding="UTF-8"?><svg id="Layer_2" xmlns="http://www.w3.org/2000/svg" viewBox="0 0 227.82 99.25"><defs><style>.cls-1,.cls-2{fill:#009fe3;}.cls-3{fill:#fff;}.cls-4{fill:#c6c6c6;}.cls-5,.cls-6{fill:#3c3c3b;}.cls-6,.cls-7,.cls-2{fill-rule:evenodd;}.cls-7{fill:#878787;}</style></defs><g id="Layer_1-2"><rect class="cls-5" x="76.64" y="27.85" width=".59" height="6.65"/><path class="cls-6" d="m80.25,30.05c1.13,0,1.69,1.03,1.69,2.05s-.56,2.05-1.69,2.05-1.69-1.02-1.69-2.05.56-2.05,1.69-2.05m0-.49c-1.47,0-2.27,1.16-2.27,2.54s.8,2.54,2.27,2.54,2.27-1.17,2.27-2.54-.8-2.54-2.27-2.54Z"/><polygon class="cls-6" points="83.28 34.5 83.86 34.5 83.86 32.68 84.81 31.89 86.71 34.5 87.45 34.5 85.26 31.48 87.31 29.7 86.53 29.7 83.86 32.02 83.86 27.85 83.28 27.85 83.28 34.5"/><path class="cls-6" d="m88.34,31.17c.02-.78.56-1.12,1.29-1.12.69,0,1.26.2,1.26.99,0,.53-.27.6-.75.65-1.27.15-2.58.2-2.58,1.54,0,.97.73,1.41,1.61,1.41s1.34-.35,1.75-.98h.02c0,.5.09.84.69.84.16,0,.25,0,.38-.04v-.5s-.12.04-.18.04c-.23,0-.35-.13-.35-.35v-2.55c0-1.29-.92-1.55-1.77-1.55-1.1,0-1.89.48-1.95,1.61h.59Zm2.54,1.47c0,.94-.78,1.51-1.68,1.51-.55,0-1.07-.36-1.07-.95,0-.94,1.24-.93,2.23-1.11.16-.03.42-.08.49-.21h.02v.76Z"/><rect class="cls-5" x="92.53" y="27.85" width=".59" height="6.65"/><path class="cls-6" d="m94.1,34.5h.59v-2.8c0-.94.58-1.65,1.51-1.65s1.22.63,1.22,1.45v3h.59v-3.09c0-1.15-.41-1.85-1.76-1.85-.68,0-1.32.39-1.54.97h-.02v-.83h-.59v4.8Z"/><path class="cls-6" d="m99.33,31.76c.09-.88.62-1.71,1.58-1.71s1.5.83,1.53,1.71h-3.11Zm3.7.49c.05-1.35-.57-2.7-2.11-2.7s-2.17,1.28-2.17,2.54c0,1.37.64,2.54,2.17,2.54,1.21,0,1.84-.63,2.1-1.72h-.59c-.19.73-.65,1.23-1.51,1.23-1.13,0-1.57-1.04-1.58-1.89h3.7Z"/><polygon class="cls-6" points="109.87 30.11 109.87 29.7 106.2 29.7 106.2 30.19 109.13 30.19 105.99 34.03 105.99 34.5 110 34.5 110 34.01 106.7 34.01 109.87 30.11"/><path class="cls-6" d="m111.13,31.17c.02-.78.56-1.12,1.28-1.12.69,0,1.26.2,1.26.99,0,.53-.27.6-.75.65-1.27.15-2.58.2-2.58,1.54,0,.97.73,1.41,1.61,1.41s1.34-.35,1.75-.98h.02c0,.5.09.84.69.84.16,0,.25,0,.38-.04v-.5s-.12.04-.19.04c-.23,0-.35-.13-.35-.35v-2.55c0-1.29-.92-1.55-1.77-1.55-1.1,0-1.89.48-1.95,1.61h.59Zm2.54,1.47c0,.94-.78,1.51-1.68,1.51-.55,0-1.07-.36-1.07-.95,0-.94,1.24-.93,2.23-1.11.16-.03.42-.08.49-.21h.02v.76Z"/><path class="cls-6" d="m115.9,27.85h-.59v.94h.59v-.94Zm-.59,7.24c0,.4-.07.7-.53.7-.09,0-.22,0-.32-.01v.48c.14,0,.27.02.41.02.83,0,1.03-.61,1.03-1.33v-5.25h-.59v5.39Z"/><path class="cls-6" d="m117.24,31.76c.09-.88.62-1.71,1.58-1.71s1.5.83,1.53,1.71h-3.11Zm3.7.49c.05-1.35-.57-2.7-2.11-2.7s-2.17,1.28-2.17,2.54c0,1.37.64,2.54,2.17,2.54,1.21,0,1.84-.63,2.1-1.72h-.59c-.18.73-.65,1.23-1.51,1.23-1.13,0-1.57-1.04-1.58-1.89h3.7Z"/><path class="cls-6" d="m125.84,27.85h-.59v2.76h-.02c-.25-.69-.95-1.05-1.67-1.05-1.46,0-2.16,1.18-2.16,2.54s.7,2.54,2.16,2.54c.7,0,1.46-.43,1.71-1.05h.02v.91h.54v-6.65Zm-3.85,4.25c0-1,.46-2.05,1.58-2.05,1.25,0,1.69,1.05,1.69,2.05s-.44,2.05-1.69,2.05c-1.12,0-1.58-1.05-1.58-2.05Z"/><path class="cls-6" d="m126.82,34.5h.59v-2.8c0-.94.58-1.65,1.51-1.65s1.22.63,1.22,1.45v3h.59v-3.09c0-1.15-.41-1.85-1.76-1.85-.68,0-1.32.39-1.54.97h-.02v-.83h-.59v4.8Z"/><path class="cls-6" d="m132.3,27.85h-.59v.94h.59v-.94Zm-.59,6.65v-4.8,4.8Zm0-4.8h.59-.59Zm.59,0h-.59v4.81h.59v-4.81Z"/><path class="cls-6" d="m137.28,31.2c-.13-1.1-.92-1.65-1.95-1.65-1.47,0-2.27,1.16-2.27,2.54s.8,2.54,2.27,2.54c1.07,0,1.83-.71,1.98-1.86h-.59c-.07.8-.67,1.37-1.4,1.37-1.13,0-1.69-1.02-1.69-2.05s.56-2.05,1.69-2.05c.76,0,1.2.44,1.36,1.16h.59Z"/><path class="cls-6" d="m138.35,31.76c.09-.88.62-1.71,1.58-1.71s1.5.83,1.53,1.71h-3.11Zm3.7.49c.05-1.35-.57-2.7-2.11-2.7s-2.17,1.28-2.17,2.54c0,1.37.64,2.54,2.17,2.54,1.21,0,1.84-.63,2.1-1.72h-.59c-.19.73-.65,1.23-1.51,1.23-1.13,0-1.58-1.04-1.58-1.89h3.7Z"/><polygon class="cls-6" points="76.41 19.08 80.49 19.08 76.11 24.63 76.11 25.19 81.29 25.19 81.29 24.65 76.82 24.65 81.2 19.1 81.2 18.54 76.41 18.54 76.41 19.08"/><path class="cls-6" d="m82.32,21.85c.02-.78.56-1.12,1.29-1.12.69,0,1.26.2,1.26.99,0,.53-.27.6-.75.65-1.27.15-2.58.2-2.58,1.54,0,.97.73,1.41,1.61,1.41s1.34-.35,1.75-.98h.02c0,.5.09.84.69.84.16,0,.25,0,.38-.04v-.49s-.12.04-.19.04c-.23,0-.34-.13-.34-.35v-2.55c0-1.28-.92-1.54-1.77-1.54-1.1,0-1.89.48-1.95,1.61h.59Zm2.54,1.47c0,.94-.78,1.51-1.67,1.51-.55,0-1.07-.36-1.07-.95,0-.94,1.24-.93,2.23-1.11.16-.03.42-.07.49-.22h.02v.76Z"/><polygon class="cls-6" points="86.43 25.19 87.02 25.19 87.02 23.36 87.97 22.57 89.87 25.19 90.61 25.19 88.42 22.16 90.47 20.38 89.68 20.38 87.02 22.71 87.02 18.54 86.43 18.54 86.43 25.19"/><rect class="cls-5" x="90.92" y="18.54" width=".59" height="6.65"/><path class="cls-6" d="m92.97,21.85c.02-.78.56-1.12,1.28-1.12s1.26.2,1.26.99c0,.53-.27.59-.76.65-1.27.15-2.58.2-2.58,1.54,0,.97.72,1.41,1.61,1.41s1.34-.35,1.75-.98h.02c0,.5.09.84.69.84.16,0,.25,0,.38-.04v-.49s-.12.04-.19.04c-.23,0-.34-.13-.34-.35v-2.55c0-1.28-.92-1.54-1.77-1.54-1.1,0-1.89.48-1.95,1.61h.59Zm2.54,1.47c0,.94-.78,1.51-1.68,1.51-.55,0-1.07-.36-1.07-.95,0-.94,1.24-.93,2.23-1.11.16-.03.42-.07.49-.22h.02v.76Z"/><path class="cls-6" d="m101.32,18.54h-.59v2.76h-.02c-.25-.69-.95-1.05-1.67-1.05-1.46,0-2.16,1.18-2.16,2.54s.7,2.54,2.16,2.54c.7,0,1.46-.43,1.71-1.05h.02v.91h.54v-6.65Zm-3.85,4.25c0-1,.46-2.05,1.58-2.05,1.25,0,1.69,1.05,1.69,2.05s-.44,2.05-1.69,2.05c-1.12,0-1.58-1.05-1.58-2.05Z"/><path class="cls-6" d="m102.78,21.85c.02-.78.56-1.12,1.28-1.12s1.26.2,1.26.99c0,.53-.27.59-.76.65-1.27.15-2.58.2-2.58,1.54,0,.97.73,1.41,1.61,1.41s1.34-.35,1.75-.98h.02c0,.5.09.84.69.84.16,0,.25,0,.38-.04v-.49s-.12.04-.19.04c-.23,0-.34-.13-.34-.35v-2.55c0-1.28-.92-1.54-1.77-1.54-1.1,0-1.89.48-1.95,1.61h.59Zm2.54,1.47c0,.94-.78,1.51-1.68,1.51-.55,0-1.07-.36-1.07-.95,0-.94,1.24-.93,2.23-1.11.16-.03.42-.07.49-.22h.02v.76Z"/><polygon class="cls-6" points="112.76 20.8 112.76 20.38 109.09 20.38 109.09 20.88 112.02 20.88 108.88 24.72 108.88 25.19 112.89 25.19 112.89 24.7 109.59 24.7 112.76 20.8"/><path class="cls-6" d="m113.96,21.85c.02-.78.56-1.12,1.28-1.12s1.26.2,1.26.99c0,.53-.27.59-.75.65-1.27.15-2.58.2-2.58,1.54,0,.97.73,1.41,1.61,1.41s1.34-.35,1.75-.98h.02c0,.5.09.84.69.84.16,0,.25,0,.38-.04v-.49s-.12.04-.18.04c-.23,0-.35-.13-.35-.35v-2.55c0-1.28-.92-1.54-1.77-1.54-1.1,0-1.89.48-1.95,1.61h.59Zm2.54,1.47c0,.94-.78,1.51-1.68,1.51-.55,0-1.07-.36-1.07-.95,0-.94,1.24-.93,2.23-1.11.16-.03.42-.07.49-.22h.02v.76Z"/><path class="cls-6" d="m120.48,25.19h.59v-2.56c0-1,.73-1.78,1.79-1.72v-.59c-.87-.04-1.52.42-1.82,1.19h-.02v-1.13h-.54v4.81Z"/><path class="cls-6" d="m123.76,21.85c.02-.78.56-1.12,1.29-1.12.69,0,1.26.2,1.26.99,0,.53-.27.59-.75.65-1.27.15-2.58.2-2.58,1.54,0,.97.73,1.41,1.61,1.41s1.34-.35,1.75-.98h.02c0,.5.09.84.69.84.16,0,.25,0,.38-.04v-.49s-.12.04-.18.04c-.23,0-.35-.13-.35-.35v-2.55c0-1.28-.92-1.54-1.77-1.54-1.1,0-1.89.48-1.95,1.61h.59Zm2.54,1.47c0,.94-.78,1.51-1.68,1.51-.55,0-1.07-.36-1.07-.95,0-.94,1.24-.93,2.24-1.11.16-.03.42-.07.49-.22h.02v.76Z"/><polygon class="cls-6" points="131.34 20.8 131.34 20.38 127.67 20.38 127.67 20.88 130.59 20.88 127.45 24.72 127.45 25.19 131.47 25.19 131.47 24.7 128.16 24.7 131.34 20.8"/><polygon class="cls-6" points="133.31 25.19 133.94 25.19 135.73 20.38 135.13 20.38 133.64 24.6 133.62 24.6 132.11 20.38 131.46 20.38 133.31 25.19"/><path class="cls-6" d="m138.16,20.74c1.13,0,1.69,1.02,1.69,2.05s-.56,2.05-1.69,2.05-1.69-1.02-1.69-2.05.56-2.05,1.69-2.05m0-.49c-1.47,0-2.27,1.16-2.27,2.54s.8,2.54,2.27,2.54,2.27-1.17,2.27-2.54-.8-2.54-2.27-2.54Z"/><path class="cls-6" d="m141.71,18.54h-.59v.94h.59v-.94Zm-.59,7.24c0,.4-.08.7-.53.7-.09,0-.22,0-.32,0v.48c.14,0,.27.02.41.02.83,0,1.02-.61,1.02-1.33v-5.25h-.59v5.39Z"/><path class="cls-7" d="m10.67,44.58c-5.6,0-9.49,3.35-9.49,8.19,0,1.49.38,2.86,1.1,4.04.95,1.6,2.59,2.63,5.22,3.35l2.94.8c2.36.65,3.47,1.72,3.47,3.43,0,2.36-1.6,3.62-4.65,3.62-2.67,0-4.8-.84-7.28-2.13l-1.98,4.15c2.67,1.52,6.02,2.4,9.03,2.4,6.59,0,10.94-3.55,10.94-8.92,0-3.93-2.36-6.71-6.71-7.89l-3.2-.88c-2.21-.61-2.94-1.3-2.94-2.67,0-1.79,1.52-3.05,3.7-3.05,1.98,0,3.77.57,6.17,2.02l2.51-3.81c-2.32-1.68-5.6-2.67-8.84-2.67"/><path class="cls-7" d="m22.56,44.85c.19,1.75.27,3.31.27,5.87v14.56c0,2.78.08,3.39.46,4.38.61,1.64,2.36,2.67,4.54,2.67,1.1,0,2.17-.19,3.05-.53l-.88-3.05c-.27.08-.38.08-.57.08-.42,0-.84-.19-1.03-.53-.3-.53-.34-.99-.34-4.35v-15.2c0-2.75-.08-4-.27-5.07l-5.22,1.18Z"/><path class="cls-7" d="m42.29,67.52c-.76.84-1.71,1.33-2.67,1.33-1.3,0-2.25-1.03-2.25-2.55,0-2.33,1.22-2.97,4.76-2.97h.23l-.08,4.19Zm-7.77-9.18c2.1-1.41,4-2.21,5.64-2.21,1.87,0,2.29.73,2.29,2.9v.8c-.53-.04-.76-.04-1.14-.04-6.21,0-9.38,2.14-9.38,6.71,0,3.89,2.36,6.1,6.71,6.1,1.6,0,2.97-.38,3.93-1.07.38-.27.46-.34,1.18-1.03.49.99,1.56,1.87,2.74,2.36l2.7-3.12c-1.49-1.11-1.83-1.91-1.83-4v-.34l.11-6.55c.04-2.1-.08-2.71-.34-3.51-.76-2.17-3.01-3.39-6.29-3.39-1.79,0-3.43.38-5.34,1.14-1.37.57-1.91.8-3.16,1.6l2.17,3.66Z"/><path class="cls-7" d="m62.59,58.65c0,1.79-1.1,2.78-3.12,2.78-1.79,0-3.01-.8-3.01-2.78,0-1.83,1.11-2.9,3.05-2.9s3.09,1.07,3.09,2.9m2.86-5.72c-.65,0-.99-.08-2.4-.42-1.41-.38-2.4-.49-3.51-.49-4.99,0-8.23,2.59-8.23,6.59,0,2.9,1.37,4.69,4.19,5.41-1.14.27-2.4.84-2.97,1.48-.42.46-.61,1.07-.61,1.79,0,.61.15,1.14.38,1.6.27.42.65.76,1.11.95.91.34,2.4.57,4.69.61,1.18,0,1.91.04,2.17.04,1.41.08,2.14.3,2.67.57.53.3.91.99.91,1.75s-.5,1.52-1.22,1.98c-.69.46-1.79.65-3.24.65-2.36,0-3.66-.84-3.66-2.4,0-.69.08-.84.23-1.26h-4.72c-.19.38-.46.91-.46,1.98,0,1.33.54,2.48,1.6,3.47,1.75,1.64,4.61,2.1,7.39,2.1,3.05,0,5.98-.69,7.7-2.52,1.07-1.14,1.56-2.4,1.56-4.04,0-1.75-.53-3.09-1.68-4.15-1.37-1.26-2.94-1.71-5.91-1.75l-2.75-.04c-.53,0-.84-.19-.84-.46,0-.53.72-.99,2.02-1.6.38.04.53.04.76.04,4.15,0,7.2-2.44,7.2-5.79,0-1.3-.38-2.29-1.14-3.2.65.08.84.12,1.33.12,1.41,0,2.48-.42,3.58-1.45l-2.14-3.24c-1.18,1.07-2.63,1.68-4.04,1.68Z"/><path class="cls-7" d="m82.33,67.52c-.76.84-1.71,1.33-2.67,1.33-1.3,0-2.25-1.03-2.25-2.55,0-2.33,1.22-2.97,4.76-2.97h.23l-.08,4.19Zm-7.77-9.18c2.1-1.41,4-2.21,5.64-2.21,1.87,0,2.28.73,2.28,2.9v.8c-.53-.04-.76-.04-1.14-.04-6.21,0-9.38,2.14-9.38,6.71,0,3.89,2.36,6.1,6.71,6.1,1.6,0,2.97-.38,3.92-1.07.38-.27.46-.34,1.18-1.03.5.99,1.56,1.87,2.74,2.36l2.71-3.12c-1.49-1.11-1.83-1.91-1.83-4v-.34l.12-6.55c.04-2.1-.08-2.71-.34-3.51-.76-2.17-3.01-3.39-6.29-3.39-1.79,0-3.43.38-5.34,1.14-1.37.57-1.91.8-3.16,1.6l2.17,3.66Z"/><path class="cls-7" d="m91.84,44.85c.19,1.75.27,3.31.27,5.87v14.56c0,2.78.07,3.39.46,4.38.61,1.64,2.36,2.67,4.53,2.67,1.11,0,2.17-.19,3.05-.53l-.88-3.05c-.27.08-.38.08-.57.08-.42,0-.84-.19-1.03-.53-.3-.53-.34-.99-.34-4.35v-15.2c0-2.75-.07-4-.27-5.07l-5.22,1.18Z"/><path class="cls-7" d="m101.63,46.98c0,1.75,1.41,3.16,3.13,3.16s3.16-1.41,3.16-3.16-1.37-3.16-3.09-3.16-3.2,1.41-3.2,3.16m.57,24.89h5.11v-19.97l-5.11.8v19.17Z"/><path class="cls-7" d="m123.5,52.7c-1.1-.53-2.48-.88-3.77-.88-1.64,0-3.55.57-4.84,1.45-2.29,1.56-4,4.53-4,9.01,0,6.31,3.12,10.04,8.5,10.04,1.87,0,3.39-.42,4.76-1.22.69-.42,1.03-.69,1.79-1.45l-2.33-3.08-.3.26c-1.26,1.1-2.33,1.6-3.51,1.6-.88,0-1.75-.42-2.29-1.1-.69-.84-.99-2.36-.99-4.9,0-4.56,1.03-6.54,3.31-6.54.95,0,2.06.57,3.09,1.52l2.48-3.35c-.84-.72-1.18-.99-1.91-1.37"/><path class="cls-7" d="m137.45,67.52c-.76.84-1.72,1.33-2.67,1.33-1.3,0-2.25-1.03-2.25-2.55,0-2.33,1.22-2.97,4.76-2.97h.23l-.08,4.19Zm-7.78-9.18c2.1-1.41,4-2.21,5.64-2.21,1.87,0,2.29.73,2.29,2.9v.8c-.53-.04-.76-.04-1.14-.04-6.21,0-9.38,2.14-9.38,6.71,0,3.89,2.36,6.1,6.71,6.1,1.6,0,2.97-.38,3.93-1.07.38-.27.46-.34,1.18-1.03.5.99,1.56,1.87,2.75,2.36l2.7-3.12c-1.49-1.11-1.83-1.91-1.83-4v-.34l.11-6.55c.04-2.1-.08-2.71-.34-3.51-.76-2.17-3.01-3.39-6.29-3.39-1.79,0-3.43.38-5.34,1.14-1.37.57-1.91.8-3.16,1.6l2.17,3.66Z"/><path class="cls-4" d="m194.18,38.19h32.6c.52,0,.94.42.94.94v32.6c0,.52-.42.94-.94.94h-32.6c-.52,0-.94-.42-.94-.94v-32.59c0-.52.42-.94.94-.94Z"/><rect class="cls-1" x="150.6" y="38.19" width="34.48" height="34.48" rx=".94" ry=".94"/><path class="cls-1" d="m194.18,0h32.6C227.29,0,227.72.42,227.72.94v32.6c0,.52-.42.94-.94.94h-32.6c-.52,0-.94-.42-.94-.94V.94C193.24.42,193.66,0,194.18,0Z"/><rect class="cls-4" x="155.02" width="34.48" height="34.48" rx=".94" ry=".94"/><polygon class="cls-3" points="161.32 52.85 170.12 61.68 161.32 70.48 158.78 67.95 163.25 63.48 150.43 63.48 150.43 59.89 163.26 59.89 158.78 55.38 161.32 52.85"/><path class="cls-2" d="m2.56,85.68c-2.33,7.88-.39,6.8,2.03,4.75,1.94-1.63,1.88-3.99,2.45-5.03,2.04-3.8-.28,4.78-.07,6l-.02.29.04.34c.03.24.56,2.64-.34,2.04-.5-.34-.81-1.26-.79-1.97.14-4.61-5.96,5.77-5.72.07.11-2.47,1.19-11.08,2.41-6.49"/><path class="cls-2" d="m13.75,91.42c-1.32,1.53-4.46,4.06-5.13,1.26-.3-1.27,1.49-5.2,3.03-5.21.86,0,1.85,1.7,1.2,2.4-1.76,1.89-.05-3.07-2.3-.39-.48.57-.95,1.84-1.14,2.54-.55,2.12,3.11-.32,3.67-.98.2-.24.87.15.66.39"/><path class="cls-2" d="m15.34,83.99l-.36.5c-2.47,3.36-4.61.06-4.43-.42.34-.9,1.59.35,1.76.52l.39.37.13.31-.02.12c.31-.19,2.45-2.38,2.54-1.39"/><path class="cls-2" d="m16.75,86.17l-.32-.7c.27-1.78,3.07-.39.65.73l-.33-.03Z"/><path class="cls-2" d="m15.19,90.75c.12,0,.09-.41.11-.48l.47-1.68.1-.74c.26-.35,1.11-.58,1.09-.02-.16,4.82-3.54,5.24,1.34,3.48l.15.18c.32.56-2.04,1.97-2.47,2.13-1.96.76-1.23-1.51-.8-2.86"/><path class="cls-2" d="m21.54,93.95l.31.91c.15.33-.93,1.22-1.3.45-.32-.67-.81-1.92-.8-2.73.03-2.16.18-4.78,2.18-6.9.1-.1,3.81-3.38,1.98-.92-2.27,3.05-2.95,3.44-3.05,7.29l.11.48.3,1.16.27.26Z"/><path class="cls-2" d="m31.96,91.33c-2.97,4.31-4.06,1.6-3.72-1.87.05-.51-2.29,2.36-2.55,2.66-3.7,4.23-1.89-.71-1.63-2.45.04-.29.37-1.64.58-1.7,1.19-.32.26,2.59.17,3.1l-.34.92v.28c.62-.2.87-1.1,1.35-1.58.77-.77,1.2-1.83,2.07-2.38,2.76-1.75.03,7,2.81,3.35.75-.99,1.88-1.22,1.26-.32"/><path class="cls-2" d="m32.48,90.75c.12,0,.09-.41.11-.48l.47-1.68.1-.74c.26-.35,1.11-.58,1.09-.02-.16,4.82-3.54,5.24,1.34,3.48l.15.18c.32.56-2.03,1.97-2.46,2.13-1.96.76-1.23-1.51-.8-2.86"/><path class="cls-2" d="m39.7,90.62c-.73,3.39-5.58,6.49-3.86,4.19,2.23-2.97,3.04-3.5,3.05-7.29l-.08-.57c-.13-.99-.69-1.29-.91-2.23-.12-.5.98-1.13,1.3-.47.96,2.02,1,4.06.5,6.37"/><path class="cls-2" d="m52.18,91.98c-.1.3-1.13,1.3-1.41,1.4-1.5.55-1.72-.23-1.94-1.49l.07-1.2.06-.47c-.55.58-2.7,3.73-3.34,3.52-1.87-.6,2.06-6.67-1.04-3.76l-.82.95-1,1.3-.67.83c-2.99,3.54,1.04-10,.61-4.21l-.19,1.24-.32,1.05-.05.44v.15c3.77-4.7,4.52-6.19,4,.53-.02.28,1.01-1.15,1.16-1.36.4-.52,2.45-3.07,2.71-3.05.97.06-.33,2.81-.21,4.03.02.27.18.82.55.69.21-.07,2.29-2.06,1.82-.6"/><path class="cls-2" d="m56.81,90.63c1.29-2.57-2.59-2.55-3.38,1.52-.54,2.8,2.72-.2,3.38-1.52m.95-.35c-.41,2.89-7.65,7.59-4.31-.45,1.3-3.12,4.77-2.8,4.31.45Z"/><path class="cls-2" d="m66.47,91.76c.51-1.19-1.77-4.65-2.17-1.57-.3,2.24,1.22,3.81,2.17,1.57m-4.46,6.81c-.57.26-.36-.87-.28-1.2.48-1.9.7-4.85,1.43-6.46,1.13-2.48-3.09-1.96-.56-2.79,6.53-2.14,5.23,6.78,2.6,5.35-2.36-1.29-1.88,3.33-3.2,5.1Z"/><path class="cls-2" d="m72.41,90.63c1.29-2.57-2.59-2.55-3.38,1.52-.54,2.8,2.72-.2,3.38-1.52m.95-.35c-.41,2.89-7.65,7.59-4.31-.45,1.3-3.12,4.78-2.8,4.31.45Z"/><path class="cls-2" d="m85.17,91.98c-.1.3-1.13,1.3-1.41,1.4-1.5.55-1.72-.23-1.94-1.49l.07-1.2.06-.47c-.55.58-2.7,3.73-3.34,3.52-1.87-.6,2.06-6.67-1.04-3.76l-.82.95-1,1.3-.67.83c-2.99,3.54,1.04-10,.61-4.21l-.19,1.24-.32,1.05-.05.44v.15c3.77-4.7,4.52-6.19,4,.53-.02.28,1-1.15,1.16-1.36.4-.52,2.45-3.07,2.71-3.05.97.06-.33,2.81-.21,4.03.03.27.18.82.55.69.21-.07,2.29-2.06,1.82-.6"/><path class="cls-2" d="m90.43,88.54c.03-.69-1.6-.66-1.96-.33-.58.52-1.98,3.57-2.07,4.44-.02.25,1.25-.88,1.45-1.02.37-.28,2.57-2.68,2.58-3.08m-4.96,4.19c.17.01.05-.45.06-.5l.39-.99c.69-1.78,1.53-4.93,3.97-4.35-.12.06.38.23.41.25.23.14.46.35.76.32l.51-.13c.52.2-.12,1.44-.38,1.97-.46.93-.46,2.23-.82,2.99-.12.26.43.82.33,1.09-.59,1.48-1.29.02-1.25-.74l.02-.09c.48-4.82-2.7,4.69-3.98.18Z"/><path class="cls-2" d="m100.17,92.62c.28.68-1.91,2.36-2.97,1.68-.57-.36-3.56-3.24-1.99-4.13.35-.2.53.44.87.53.2.05,1.33-.41,1.57-.51,3.47-1.51-1.28-4.3-3.67,1.36-2.73,6.44-.55-2.23-.38-3.59.72-5.74,1.97-2.88.71.64-.45,1.25,1.93-1.59,4.51-1.37,2.93.25-.31,3.61-2.18,4.28-1.06.38,1.13,2.19,1.7,1.94.66-.28,1.44-1.8,1.84-.82"/><path class="cls-2" d="m104.2,88.29c.05-.31-.52-.15-.64-.03-.47.45-.84.9-1.21,1.43-.36.5.49-.24.56-.24.25.02,1.22-.69,1.29-1.16m.52,4.21c-.2,1.1-2.83,2.28-3.54,1.74-2.95-2.22,3.13-9.51,3.75-6.71.72,3.28-3.04,2.12-3.72,4.95-.59,2.42,3.76-1.36,3.51.02Z"/><path class="cls-2" d="m114.86,92.66c0,.17-.26.41-.36.52-.29.32-8.93,2.1-5.54-.74l.77-.64c.63-.42,1.08-.97,1.65-1.43l.61-.5-.11.02,1.1-1.02.29-.23c-.51-.24-4.53.5-4.73-.19-.33-1.15,1.27-.8,1.73-.63.37.13,2.07,0,2.44-.03,4.7-.26,1.04,1.59-1.5,3.79-3.64,3.16,3.68.13,3.67,1.1"/><path class="cls-2" d="m120.57,88.54c.03-.69-1.6-.66-1.96-.33-.58.52-1.98,3.57-2.07,4.44-.02.25,1.25-.88,1.45-1.02.37-.28,2.57-2.68,2.58-3.08m-4.96,4.19c.17.01.05-.45.05-.5l.39-.99c.69-1.78,1.53-4.93,3.97-4.35-.12.06.38.23.41.25.23.14.46.35.76.32l.51-.13c.52.2-.12,1.44-.38,1.97-.46.93-.46,2.23-.82,2.99-.12.26.43.82.33,1.09-.59,1.48-1.29.02-1.25-.74l.02-.09c.48-4.82-2.7,4.69-3.98.18Z"/><path class="cls-2" d="m130.24,91.76c.51-1.19-1.77-4.65-2.17-1.57-.3,2.24,1.22,3.81,2.17,1.57m-4.46,6.81c-.58.26-.36-.87-.28-1.2.48-1.9.7-4.85,1.43-6.46,1.13-2.48-3.09-1.96-.56-2.79,6.53-2.14,5.23,6.78,2.6,5.35-2.36-1.29-1.88,3.33-3.2,5.1Z"/><path class="cls-2" d="m137.4,88.26l-.2.48c-.54.42-2.03.22-2.9,1.62-.91,1.48-1.18,1.5-1.35,3.14-.03.25-.65.68-.84.67-.67-.01.19-6.14.97-6.47.73-.31.18,1.95.16,2.36l-.15.77c.64-.34.86-1.32,1.46-1.74.46-.32,2.68-1.98,2.85-.83"/><path class="cls-2" d="m141.34,88.54c.03-.69-1.6-.66-1.96-.33-.58.52-1.98,3.57-2.07,4.44-.02.25,1.25-.88,1.45-1.02.37-.28,2.57-2.68,2.58-3.08m-4.96,4.19c.17.01.05-.45.06-.5l.39-.99c.69-1.78,1.53-4.93,3.97-4.35-.12.06.38.23.41.25.23.14.46.35.76.32l.51-.13c.52.2-.12,1.44-.38,1.97-.46.93-.46,2.23-.82,2.99-.12.26.43.82.33,1.09-.59,1.48-1.29.02-1.25-.74l.02-.09c.48-4.82-2.7,4.69-3.98.18Z"/><path class="cls-2" d="m145.23,93.94c-.47-.42-2.4-5.87-1.18-6.19l.66,1.08c-.23.34.29.31.33.58.11.83-.43,4.41.97,2.63l.71-.82.34-.35.45-.76s.04.13.12.01c.46-.7,1.81-3.09,2.32-3.39,2.12-1.24-3.18,6.07-4.72,7.2"/><path class="cls-2" d="m153.34,88.29c.05-.31-.52-.15-.64-.03-.46.45-.84.9-1.21,1.43-.36.5.49-.24.56-.24.25.02,1.22-.69,1.29-1.16m.52,4.21c-.2,1.1-2.83,2.28-3.54,1.74-2.95-2.22,3.13-9.51,3.75-6.71.72,3.28-3.04,2.12-3.72,4.95-.59,2.42,3.76-1.36,3.51.02Z"/><path class="cls-2" d="m159.14,89.08c-1.94-2.64-3.74,1.41-4.11,3.35-.26,1.37,2.66-1.32,2.88-1.86l1.23-1.49Zm1.31,3.57c.03.58-.88,1.37-1.29.89-.87-1.03.72-4.02-.51-2.43-6.61,8.56-5.12-4.93.33-3.7.29.06.59.36.67.67.03.12.18-.24.22-.38l.21-.95c.08-.48.33-2.47.6-2.6,1.44-.71.29,3.02.1,3.65-.81,2.69-.41,3.2-.33,4.83Z"/><path class="cls-2" d="m170.4,91.33c-2.97,4.31-4.06,1.6-3.72-1.87.05-.51-2.29,2.36-2.55,2.66-3.7,4.23-1.89-.71-1.63-2.45.04-.29.37-1.64.58-1.7,1.19-.32.26,2.59.17,3.1l-.34.92v.28c.62-.2.87-1.1,1.35-1.58.77-.77,1.2-1.83,2.07-2.38,2.76-1.75.03,7,2.82,3.35.76-.99,1.88-1.21,1.26-.32"/><path class="cls-2" d="m170.91,90.75c.12,0,.09-.41.11-.48l.47-1.68.1-.74c.26-.35,1.11-.58,1.09-.02-.16,4.82-3.54,5.24,1.34,3.48l.15.18c.32.56-2.03,1.97-2.47,2.13-1.95.76-1.23-1.51-.8-2.86"/><path class="cls-2" d="m176.07,93.92c-.5,1.76-3.54,8.42-5.17,3.61-.06-.18-.93-1.34-.41-1.56.68-.28,1.83,3.13,3.53,1.27l.61-1.37.26-1.49c.66-1.65.63-4.09.99-5.96.72-3.72.71,3.66.18,5.51"/><path class="cls-2" d="m181.72,88.29c.05-.31-.52-.15-.64-.03-.46.45-.84.9-1.21,1.43-.36.5.49-.24.56-.24.25.02,1.22-.69,1.29-1.16m.52,4.21c-.2,1.1-2.83,2.28-3.54,1.74-2.94-2.22,3.13-9.51,3.75-6.71.73,3.28-3.04,2.12-3.72,4.95-.59,2.42,3.76-1.36,3.51.02Z"/><path class="cls-2" d="m191,89.08c-1.94-2.64-3.74,1.41-4.11,3.35-.26,1.37,2.66-1.32,2.88-1.86l1.23-1.49Zm1.31,3.57c.03.58-.88,1.37-1.28.89-.87-1.03.71-4.02-.51-2.43-6.6,8.56-5.12-4.93.32-3.7.29.06.59.36.68.67.03.12.18-.24.22-.38l.21-.95c.08-.48.33-2.47.59-2.6,1.44-.71.29,3.02.1,3.65-.8,2.69-.41,3.2-.33,4.83Z"/><path class="cls-2" d="m198.88,88.26l-.2.48c-.54.42-2.03.22-2.9,1.62-.91,1.48-1.18,1.5-1.35,3.14-.02.25-.65.68-.84.67-.67-.01.19-6.14.97-6.47.73-.31.18,1.95.16,2.36l-.15.77c.64-.34.86-1.32,1.46-1.74.46-.32,2.68-1.98,2.85-.83"/><path class="cls-2" d="m205.16,92.85c0,.27-2.84,2.58-2.89-1.21-.01-.95-5.57,4.42-4.29.45,2.37-7.31,2.49-3.5,1.03-.04-.62,1.47,3.72-2.14,4.28-3.4.19-.42,1.42-1.3,1.2-.22-.31,1.49-1.6,1.81-1.38,3.83.12,1.15,2.05-.27,2.06.6"/><path class="cls-2" d="m205.51,93.63l-.32-.91c-.1-.18.56-.47.67-.47.31,0,.73.51.83.69l1.74-.12c3.76-.25-3.08-1.4-1.84-3.62.62-1.1,3.18-2.59,3.96-1.78,1.35,1.41-1.78.78-2.73,1.63-1.92,1.72,2.81,1.46,3.03,3.41.19,1.69-4.58,1.41-5.34,1.17"/><path class="cls-2" d="m216.63,88.46c.01.12-.62.43-.72.48-.6.3-1.24.24-1.86.35l-.61-.04c-.83,1.49-.85,4.22,1.08,3.32,2.26-1.05-.04,2.12-1.85.91-1.54-1.03.05-3.08-.12-4.19-.02-.12-.3.03-.35.01-.17-.05-.72-.81-.66-.98.24-.64,1.04.09,1.33-.16.13-.11.05-2.42.45-2.54,1.89-.57.11,2.4.39,2.61l2.03-.09c.25,0,.84-.03.88.32"/><path class="cls-2" d="m218.23,93.94c-.47-.42-2.4-5.87-1.18-6.19l.66,1.08c-.22.34.29.31.33.58.11.83-.43,4.41.97,2.63l.71-.82.34-.35.46-.76s.04.13.12.01c.46-.7,1.81-3.09,2.32-3.39,2.11-1.24-3.18,6.07-4.72,7.2"/><path class="cls-2" d="m226.83,90.63c1.29-2.57-2.59-2.55-3.38,1.52-.54,2.8,2.72-.2,3.38-1.52m.95-.35c-.41,2.89-7.65,7.59-4.32-.45,1.3-3.12,4.77-2.8,4.32.45Z"/><path class="cls-2" d="m33.84,86.68l-.32-.7c.27-1.78,3.07-.39.65.73l-.33-.03Z"/><path class="cls-2" d="m172.37,86.04l-.32-.7c.27-1.79,3.07-.39.65.73l-.33-.03Z"/><path class="cls-2" d="m176.56,85.66l-.32-.7c.27-1.79,3.07-.39.65.73l-.33-.03Z"/><path class="cls-2" d="m212.24,84.33l-.36.5c-2.47,3.36-4.61.06-4.43-.42.34-.9,1.6.35,1.76.53l.39.37.13.31-.02.12c.31-.19,2.45-2.38,2.53-1.39"/></g></svg>