<svg xmlns="http://www.w3.org/2000/svg" fill="none" viewBox="0 0 26 26">
  <path fill="#fff" fill-rule="evenodd" d="M7.07.16h11.86a6.98 6.98 0 0 1 6.95 6.95v11.8a6.98 6.98 0 0 1-6.95 6.95H7.07a6.98 6.98 0 0 1-6.95-6.94V7.12A6.98 6.98 0 0 1 7.07.15Zm12.85 4.5c.8 0 1.47.67 1.47 1.47 0 .8-.67 1.47-1.47 1.47-.86 0-1.48-.67-1.48-1.47 0-.8.62-1.48 1.48-1.48ZM12.97 6h.06c3.81 0 7.01 3.2 7.01 7 0 3.88-3.2 7.01-7 7.01h-.07a7 7 0 0 1-6.95-7A7.04 7.04 0 0 1 12.97 6Zm0 2.4h.06a4.64 4.64 0 0 1 0 9.28h-.06a4.64 4.64 0 0 1 0-9.28ZM7.13 2.37h11.74a4.8 4.8 0 0 1 4.8 4.8v11.67a4.8 4.8 0 0 1-4.8 4.8H7.13a4.8 4.8 0 0 1-4.8-4.8V7.17a4.8 4.8 0 0 1 4.8-4.8Z" clip-rule="evenodd"/>
</svg>
