<svg xmlns="http://www.w3.org/2000/svg" viewBox="2.86 2.88 30.28 30.24">
  <path d="M12.6 14.76V8.28a5.4 5.4 0 0 1 10.8 0v6.48a5.4 5.4 0 0 1-10.8 0Z"/>
  <path d="M28.32 17.94a10.74 10.74 0 0 1-8.16 7.4v4.54h1.62a1.62 1.62 0 0 1 0 3.24h-7.56a1.62 1.62 0 0 1 0-3.24h1.62v-4.54a10.74 10.74 0 0 1-8.16-7.4 1.62 1.62 0 0 1 3.1-.96A7.62 7.62 0 0 0 18 22.32c3.28 0 6.26-2.2 7.22-5.34a1.62 1.62 0 1 1 3.1.96Zm-.24-11.28a5.4 5.4 0 0 1 0 5.4 1.08 1.08 0 0 1-1.87-1.08 3.23 3.23 0 0 0 0-3.24 1.08 1.08 0 1 1 1.87-1.08Zm3.83-2.17a9.45 9.45 0 0 1 1.23 4.87c0 1.71-.44 3.43-1.22 4.85A1.1 1.1 0 1 1 30 13.15c.6-1.1.94-2.45.94-3.8 0-1.44-.3-2.68-.93-3.76a1.1 1.1 0 1 1 1.9-1.1ZM7.92 12.06a5.4 5.4 0 0 1 0-5.4A1.08 1.08 0 1 1 9.8 7.74a3.23 3.23 0 0 0 0 3.24 1.08 1.08 0 1 1-1.87 1.08ZM6 13.15a1.1 1.1 0 0 1-1.92 1.06 10.18 10.18 0 0 1-1.22-4.85c0-1.85.4-3.44 1.23-4.87a1.1 1.1 0 0 1 1.9 1.1 7.33 7.33 0 0 0-.93 3.77c0 1.35.33 2.7.94 3.79Z"/>
</svg>
