<svg xmlns="http://www.w3.org/2000/svg" fill="none" viewBox="10 10 16 16">
  <path fill="#fff" d="M18 26a8 8 0 1 0 0-16 8 8 0 0 0 0 16Zm-6.16-4.95c.92.16 1.91.28 2.95.36.2 1.1.57 2.17 1.13 3.15a6.9 6.9 0 0 1-4.08-3.51ZM18 11.12c.77 0 1.6 1.34 2.06 3.42a44.74 44.74 0 0 0-4.12 0c.46-2.08 1.29-3.42 2.06-3.42Zm2.26 4.54a17.07 17.07 0 0 1 0 4.68c-1.5.07-3.01.07-4.52 0a17.2 17.2 0 0 1 0-4.68c1.5-.07 3.01-.07 4.52 0ZM24.88 18c0 .62-.08 1.23-.25 1.83-1.07.2-2.15.35-3.24.43a18.42 18.42 0 0 0 0-4.52c1.09.08 2.17.23 3.24.43.17.6.25 1.21.25 1.83ZM18 24.88c-.77 0-1.6-1.33-2.05-3.4a41.8 41.8 0 0 0 4.1 0c-.46 2.07-1.28 3.4-2.05 3.4Zm-3.4-4.62a28.76 28.76 0 0 1-3.23-.43 6.7 6.7 0 0 1 0-3.66 29.3 29.3 0 0 1 3.24-.43c-.2 1.5-.2 3.02 0 4.52Zm5.48 4.3a9.6 9.6 0 0 0 1.13-3.15c1.04-.08 2.03-.2 2.95-.36a6.91 6.91 0 0 1-4.08 3.51Zm4.08-9.6a28.1 28.1 0 0 0-2.95-.35 9.75 9.75 0 0 0-1.13-3.17 6.91 6.91 0 0 1 4.08 3.51Zm-8.24-3.52a9.75 9.75 0 0 0-1.13 3.17c-1.04.07-2.04.19-2.95.34a6.91 6.91 0 0 1 4.08-3.51Z"/>
</svg>
